<?xml version="1.0" encoding="utf-8"?>
<!-- Generator: Adobe Illustrator 16.0.0, SVG Export Plug-In . SVG Version: 6.00 Build 0)  -->
<!DOCTYPE svg PUBLIC "-//W3C//DTD SVG 1.1//EN" "http://www.w3.org/Graphics/SVG/1.1/DTD/svg11.dtd">
<svg version="1.1" id="圖層_1" xmlns="http://www.w3.org/2000/svg" xmlns:xlink="http://www.w3.org/1999/xlink" x="0px" y="0px"
	 width="100px" height="100px" viewBox="0 0 100 100" enable-background="new 0 0 100 100" xml:space="preserve">
<g>
	<path fill="#FF5500" d="M55.615,19.01v31.714h15.105c-0.137,3.855-1.184,6.908-3.186,9.309c-2.157,2.588-5.522,4.445-10.004,5.52
		l-1.916,0.459V80.99l2.621-0.127c8.916-0.434,16.314-3.811,21.988-10.037c5.65-6.191,8.518-13.932,8.518-23.001V19.01H55.615z"/>
	<path fill="#FF5500" d="M11.258,50.725H26.35c-0.189,3.832-1.244,6.949-3.143,9.281c-2.116,2.605-5.489,4.473-10.024,5.545
		l-1.925,0.455v14.982l2.622-0.127c8.916-0.434,16.313-3.811,21.987-10.035c5.651-6.189,8.518-13.93,8.518-23.003V19.009H11.259
		L11.258,50.725L11.258,50.725z"/>
</g>
</svg>
