<?xml version="1.0" encoding="utf-8"?>
<!-- Generator: Adobe Illustrator 16.0.0, SVG Export Plug-In . SVG Version: 6.00 Build 0)  -->
<!DOCTYPE svg PUBLIC "-//W3C//DTD SVG 1.1//EN" "http://www.w3.org/Graphics/SVG/1.1/DTD/svg11.dtd">
<svg version="1.1" id="圖層_1" xmlns="http://www.w3.org/2000/svg" xmlns:xlink="http://www.w3.org/1999/xlink" x="0px" y="0px"
	 width="100px" height="100px" viewBox="0 0 100 100" enable-background="new 0 0 100 100" xml:space="preserve">
<g>
	<path fill="#FF5500" d="M19.779,29.27c-5.654,6.163-8.521,13.922-8.521,23.061v28.511h33.126V49.228H29.289
		c0.175-3.788,1.207-6.801,3.143-9.181c2.12-2.604,5.494-4.471,10.027-5.545l1.925-0.456V19.159l-2.623,0.129
		C32.854,19.726,25.459,23.083,19.779,29.27z"/>
	<path fill="#FF5500" d="M86.826,34.5l1.916-0.46V19.159l-2.623,0.129c-8.91,0.438-16.306,3.795-21.983,9.981
		c-5.654,6.163-8.521,13.922-8.521,23.061v28.511H88.74V49.228H73.631c0.124-3.824,1.167-6.855,3.178-9.245
		C78.971,37.422,82.341,35.577,86.826,34.5z"/>
</g>
</svg>
