<?xml version="1.0" encoding="utf-8"?>
<!-- Generator: Adobe Illustrator 18.0.0, SVG Export Plug-In . SVG Version: 6.00 Build 0)  -->
<!DOCTYPE svg PUBLIC "-//W3C//DTD SVG 1.1//EN" "http://www.w3.org/Graphics/SVG/1.1/DTD/svg11.dtd">
<svg version="1.1" id="圖層_1" xmlns="http://www.w3.org/2000/svg" xmlns:xlink="http://www.w3.org/1999/xlink" x="0px" y="0px"
	 width="211.850235px" height="50px" viewBox="0 0 211.850235 50" style="enable-background:new 0 0 211.850235 50;"
	 xml:space="preserve">
<style type="text/css">
	.st0{fill:#001655;}
</style>
<g>
	<path class="st0" d="M169.3167877,33.2819443c0.1326294-0.9222717,0.3053741-2.3336124,0.5185394-4.2336788l3.0320892,0.2440205
		c-0.133316,2.0357857-0.2861786,3.5825005-0.4589081,4.6411781c-0.1730804,1.0583344-0.552124,2.6735954-1.1368103,4.8444138
		l-3.2716522-0.4475975C168.7183838,35.8873367,169.157074,34.2049026,169.3167877,33.2819443z M181.5249939,12.6012449
		c-1.9151459,3.7727156-4.0962524,7.3144331-6.5429688,10.6254969l3.9893188-0.2443619
		c-0.2131653-0.8143158-0.4386902-1.6012115-0.6779022-2.3613739l2.6729126-0.4068146
		c0.8509827,2.1166687,1.5021515,4.1795292,1.954895,6.1878948l-3.191803,0.4475994
		c-0.0534515-0.3523216-0.1065826-0.7327461-0.1593628-1.1399021l-2.194458,0.2035789v15.8362827h-3.191803v-15.551136
		l-5.2659607,0.407156l-0.239563-2.8905411l2.1146088-0.1627941c0.9575653-1.2214699,1.8880615-2.4693317,2.792511-3.7452965
		c-1.5957184-1.9267979-3.2452545-3.6232853-4.9468842-5.0887775l1.7554321-2.5649519
		c0.1857605,0.1631365,0.398941,0.3533487,0.6381531,0.5699511c1.3030396-1.8726482,2.460083-3.8124704,3.4711304-5.8215237
		l2.792511,1.2622557c-1.2502594,2.3342981-2.6197815,4.5733194-4.1092682,6.717063
		c0.6912842,0.7060137,1.3966064,1.4795437,2.1146088,2.3205891c1.1433411-1.8993797,2.2342224-3.8810148,3.2713165-5.9438753
		L181.5249939,12.6012449z M179.2907715,36.0096931c0-2.0083694-0.1333313-4.3286152-0.398941-6.9614277l2.7527618-0.0815678
		c0.3190918,3.3655548,0.4650879,5.6995125,0.4386902,7.0022087L179.2907715,36.0096931z M183.5196533,41.7496452V8.2452126
		h20.3468781v30.0034981c0,2.5779762-1.2766418,3.8673096-3.8299408,3.8673096h-0.5209351
		c-1.5263672,0-2.7537842-1.0107231-3.0474854-2.5087357l-0.1466217-0.7478371h2.7177124
		c1.0901947,0,1.6358185-0.5559006,1.6358185-1.6690674V11.3393326H186.711441v30.4103127H183.5196533z M199.5578003,26.6056652
		h-7.0615082v5.739954c0,0.3804245,0.1727295,0.5699539,0.5185394,0.5699539h5.7848511v3.09412h-7.3408203
		c-1.4360046,0-2.1543579-0.7461128-2.1543579-2.2390213v-7.1650066h-1.4360199v-2.7685299h4.4680939v-3.4193649h-4.4680939
		v-2.7685318h1.9946594l-1.4363556-4.4372578l3.032074-0.4887257l1.47612,4.9259834h1.7955322l1.6358337-4.7628469
		l3.0718384,0.3663731l-1.6358337,4.3964739h1.7554474v2.7685318h-4.1891327v3.4193649h4.1891327V26.6056652z"/>
	<path class="st0" d="M99.099678,31.979248v9.7703972h-3.1917953v-9.0780945
		c-0.2392273,0.3530083-0.4925003,0.6919632-0.75811,1.0175514c-1.2766495,1.5744781-3.0457993,3.3521919-5.3060684,5.3331413
		l-2.1941223-2.2390213c2.0477829-1.6824379,3.7103424-3.3110657,4.9869919-4.8852005
		c0.9037628-1.112484,1.7684555-2.3473225,2.5930557-3.704855h-6.4631042V25.09939h7.1413574v-3.2569141h-6.2238846v-3.0941181
		h2.6331558l-1.3164063-5.332799H89.045845v-3.0941191h6.8620377V7.0645261h3.1917953v3.2569137h6.6228104v3.0941191h-1.7554321
		l-1.3966064,5.332799h2.3939285v3.0941181H99.099678V25.09939h6.6228104v3.0937767H99.099678v0.2035789
		c1.6755753,1.6831207,3.5369186,3.1893959,5.5853806,4.5188274l-1.3164063,3.0125504
		C101.9583435,34.8972054,100.5360336,33.5811424,99.099678,31.979248z M100.6954041,13.4155588h-6.383255l1.2766495,5.332799
		h3.7901993L100.6954041,13.4155588z M116.4943314,41.9189529V22.1680641h-5.7053452v0.3259315
		c0,4.3152485-0.2659531,7.9930286-0.7978592,11.0323105c-0.5853729,3.09412-1.5827026,5.8756752-2.9919891,8.3456917
		l-2.9923325-1.5062752c1.4096298-2.4967499,2.3600082-5.1429291,2.8525009-7.9385338
		c0.4918137-2.79492,0.7382278-6.1066704,0.7382278-9.9331932V9.4666843
		c4.3618622-0.3797398,8.8032303-1.2074194,13.3251419-2.4833841l1.6755829,2.6461782
		c-3.5643387,1.0041838-7.5001907,1.8459158-11.8092728,2.5238256v6.9209833h13.1657791v3.0937767h-4.2686386v16.6669464
		c0,1.7477531-1.3361893,3.0839424-3.0839386,3.0839424H116.4943314z"/>
	<path class="st0" d="M129.8194733,41.7496452V7.8380556h14.562027v12.6609392H133.011261v21.2506504H129.8194733z
		 M133.011261,12.9268332h8.1784515v-2.4425993h-8.1784515V12.9268332z M141.1897125,15.5730114h-8.1784515v2.3205891h8.1784515
		V15.5730114z M136.202713,22.3308601h20.5864563v2.6057358h-2.593399V35.480526
		c0.8777161-0.0815697,1.7554321-0.162796,2.6331482-0.2443657l0.1994781,2.4018173
		c-0.9311829,0.1089859-1.8750458,0.2309952-2.8326263,0.3663712v3.09412h-3.191452v-2.7681885
		c-4.8413239,0.4616508-9.9876862,0.8006058-15.4397583,1.0175514l-0.1199493-2.7274055
		c1.0905457-0.0541496,2.1807556-0.0949326,3.2716522-0.1223526V24.9365959h-2.5135498V22.3308601z M151.0043182,24.9365959
		h-9.0962524v2.3202477h9.0962524V24.9365959z M151.0043182,29.5774326h-9.0962524v2.1170101h9.0962524V29.5774326z
		 M151.0043182,34.0146904h-9.0962524v2.3613739c3.1115875-0.2169456,6.1436768-0.4205246,9.0962524-0.6107368V34.0146904z
		 M163.2522736,7.8380556v31.2249718c0,2.0354424-0.9973297,3.0529938-2.9923248,3.0529938h-1.2667694
		c-1.5263367,0-2.7537842-1.0100212-3.046402-2.5030899l-0.1477051-0.7534828h3.1842194
		c0.7183533,0,1.077179-0.3663712,1.077179-1.0991173V20.4989948h-11.370224V7.8380556H163.2522736z M151.8820343,12.9268332
		h8.1784363v-2.4425993h-8.1784363V12.9268332z M160.0604706,15.5730114h-8.1784363v2.3205891h8.1784363V15.5730114z"/>
	<g>
		<path class="st0" d="M19.467226,11.3393326v30.4103127h-3.1917953V35.480526
			c-2.5272532,0.7601624-5.2663097,1.4795418-8.2185411,2.1574516l-0.6782527-3.0937767
			c0.6381536-0.1357193,1.2629409-0.2710953,1.8750472-0.4071579V11.3393326H8.3362103v-3.09412h12.2877121v3.09412H19.467226z
			 M12.4454803,11.3393326v5.1700039h3.8299503v-5.1700039H12.4454803z M12.4454803,19.3183079v5.0075531h3.8299503v-5.0075531
			H12.4454803z M12.4454803,27.0940495v6.3102474c1.3294296-0.2985115,2.6064224-0.6107368,3.8299503-0.9363251v-5.3739223
			H12.4454803z M31.5955715,12.3568821c-1.1967964,2.4700174-3.0457954,5.2251816-5.5456314,8.2641239l2.5533009-0.3255901
			c-0.1593666-0.5151138-0.3190765-1.044281-0.4787865-1.5874996l2.4737873-0.4071579
			c0.6912766,1.7098541,1.1967945,3.3521919,1.515871,4.9259834l-2.7130089,0.4071579
			c-0.0534649-0.2710953-0.1065865-0.5295105-0.1593666-0.773531l-7.8196087,0.9767666
			c-0.079855-0.8955402-0.2265415-1.7636623-0.4390316-2.6053944l1.5162144-0.2035789
			c1.0370865-1.2211285,1.9946594-2.4285469,2.8723774-3.6229439c-1.3832378-1.7365866-2.8463287-3.2569132-4.3885918-4.5596104
			l1.5559711-2.32059c0.292345,0.2443628,0.5586414,0.4750166,0.797863,0.6919622
			c0.9836197-1.3565054,1.8483143-2.7815552,2.593399-4.2744641l2.473444,1.1806874
			c-0.9311829,1.7910795-1.9686108,3.4742012-3.1119404,5.0479927c0.5586414,0.6247873,1.1172829,1.2485466,1.675581,1.8726482
			c0.877718-1.3842649,1.6622162-2.7407694,2.3538342-4.0708847L31.5955715,12.3568821z M31.1565399,24.8550282v4.4780407
			c0,2.8771744-0.4787865,5.3399963-1.4360161,7.3891487c-0.9575729,2.0494919-2.6999855,3.9008942-5.226553,5.5569382
			l-2.3935909-2.2798042c2.2937641-1.4767609,4.1524239-3.3299179,4.9468899-5.414711H22.020525v-9.24123h3.1914539v6.4322586
			h2.593399c0.1059017-0.7594776,0.1597099-1.5734501,0.1597099-2.4426003v-4.4780407H31.1565399z M41.0510063,22.8603687
			l-8.2586403,1.1399021c-0.0798531-0.8958817-0.2262001-1.7773705-0.4386864-2.6461773l1.4761124-0.1631374
			c0.9572334-1.1937103,1.8483162-2.3610306,2.6729126-3.5009327c-1.4363594-1.8452311-2.9261856-3.4604931-4.4684448-4.8444157
			l1.5960693-2.2798052c0.2652664,0.2176304,0.5185432,0.4342318,0.7577629,0.6511774
			c0.9308395-1.3294296,1.7417297-2.7407703,2.4336891-4.2336798l2.553299,1.0991182
			c-0.9311829,1.8184977-1.9549026,3.5283518-3.0718422,5.1295624c0.5846901,0.6785946,1.170063,1.3705559,1.7554359,2.0762262
			c0.8777199-1.4654913,1.6358261-2.8905401,2.2739792-4.274806l2.3140793,1.3030396
			c-1.1172829,2.4970932-2.8727188,5.2920132-5.2663078,8.3861332l2.7928619-0.3663731
			c-0.1864433-0.5425339-0.3992729-1.0991173-0.6384964-1.6690693l2.4336891-0.6515198
			c0.8509865,1.7646904,1.515873,3.4604912,1.9946594,5.0887775L41.250473,23.755909
			C41.1966629,23.4303207,41.1305161,23.1318073,41.0510063,22.8603687z M42.6864891,25.3434105v9.5671616h-5.944561v4.1869736
			c0,1.7477531-1.3361893,3.0839386-3.0839424,3.0839386h-0.1075134V24.8550282h3.1914558v7.2465725h2.7531052v-6.7581902
			H42.6864891z"/>
		<path class="st0" d="M47.4740105,20.3769855c8.1650772-4.4509668,13.8700714-8.98316,17.1153374-13.5972633h2.9923248
			c2.8723755,4.6408362,8.4978638,9.0650711,16.8757706,13.2716751l-1.9549026,2.8901978
			c-2.3935928-1.2478619-4.5479584-2.5238247-6.4631042-3.8268661V22.00527H56.0914841v-2.9717655
			c-2.1012459,1.4654903-4.3755684,2.8363895-6.8222809,4.1116695L47.4740105,20.3769855z M52.3413887,26.2392921h27.8474159
			v12.5225906c0,1.7477531-1.3361893,3.0839386-3.0839386,3.0839386h-0.1476135v-1.5616646H55.5328407v1.4654884h-3.191452
			V26.2392921z M76.9572525,29.3330688H55.5328407v7.8573112h21.4244118V29.3330688z M66.0654602,9.9142828
			c-2.6866188,3.2301807-5.944561,6.2286806-9.7745094,8.9972105H75.680603
			C71.5572815,16.0888119,68.3528061,13.0896282,66.0654602,9.9142828z"/>
	</g>
</g>
</svg>
