<?xml version="1.0" encoding="utf-8"?>
<!-- Generator: Adobe Illustrator 18.0.0, SVG Export Plug-In . SVG Version: 6.00 Build 0)  -->
<!DOCTYPE svg PUBLIC "-//W3C//DTD SVG 1.1//EN" "http://www.w3.org/Graphics/SVG/1.1/DTD/svg11.dtd">
<svg version="1.1" id="圖層_1" xmlns="http://www.w3.org/2000/svg" xmlns:xlink="http://www.w3.org/1999/xlink" x="0px" y="0px"
	 width="50px" height="50px" viewBox="0 0 50 50" enable-background="new 0 0 50 50" xml:space="preserve">
<g>
	<path fill="#F46C00" d="M46.2369003,0.0994819C45.163868,0.0185997,37.2304268,0,25.002039,0
		C12.449646,0,4.8511992,0.017747,3.7671783,0.0994819c-1.0870976,0.0819669-2.001183,0.3644634-2.6409745,0.9949104
		C0.4955623,1.7158231,0.2103837,2.593951,0.1315533,3.6396601C0.0531674,4.679472,0.0279927,12.7288933,0.0279927,24.9691811
		s0.0249536,20.2914963,0.1035606,21.3334274c0.0788304,1.0448914,0.3639196,1.9245148,0.994418,2.5451088
		c0.6398023,0.6297531,1.5551353,0.8995972,2.641207,0.9931107C4.8570442,49.9346733,12.7736521,50,25.002039,50
		s20.150423-0.0653267,21.2348614-0.1591721c1.0863533-0.0940094,2.0019531-0.363575,2.6417847-0.9936829
		c0.6301422-0.6205635,0.9145813-1.4996452,0.9938393-2.5445366c0.0787811-1.0385857,0.0994835-9.0931396,0.0994835-21.3334274
		S49.9518051,4.6823597,49.8725243,3.6396601c-0.0795097-1.0457091-0.3635635-1.9227552-0.9934921-2.5441213
		C48.2391853,0.4643872,47.3243217,0.1814489,46.2369003,0.0994819z"/>
	<path fill="#FFFFFF" d="M33.9720345,11.1534061c-1.9072952-0.0920868-4.484787-0.1293268-8.9699955-0.1293268
		s-7.0713596,0.0377407-8.9704151,0.1293268c-1.9012632,0.091692-3.5648861,0.655489-4.7819252,1.7638988
		c-1.3222761,1.2042532-2.0860519,2.9433851-2.1173983,4.956871c-0.0313492,2.013731-0.039834,3.2664776-0.039834,6.5201588
		s0.0084848,4.5367451,0.039834,6.5201588c0.0313454,1.9831657,0.7944698,3.7505264,2.1157703,4.9540901
		c1.2171841,1.1087227,2.8862305,1.6622543,4.7835531,1.7642326c1.8988876,0.1020622,4.4854183,0.1890144,8.9704151,0.1890144
		s7.0614109-0.0869522,8.9699955-0.1890144c1.898632-0.101532,3.56604-0.655262,4.7832146-1.7635994
		c1.3217812-1.2035828,2.0850754-2.9715576,2.1165276-4.9547234c0.0314598-1.9834137,0.0399323-3.2588272,0.0399323-6.5195313
		s-0.0084724-4.5070553-0.0399323-6.5207863c-0.0314522-2.013484-0.7952118-3.7528219-2.1176872-4.9570827
		C37.537014,11.8088121,35.8711662,11.2450981,33.9720345,11.1534061z"/>
	<path d="M31.397377,16.6821632h-1.3348274v9.4724846h1.3348274c1.1276512-0.0001717,1.507473-0.8065166,1.507473-1.6885204
		v-6.0954456C32.90485,17.4885941,32.5249405,16.6821632,31.397377,16.6821632z"/>
	<path d="M22.0425758,30.8104591c0.1219234,1.5646248,0.9229584,2.9015923,2.965168,2.9015923
		c2.0425549,0,2.8436737-1.3369675,2.9656849-2.9015923H22.0425758z"/>
	<g>
		<path d="M20.0852757,24.6064529c0,0.8466797-0.3646564,1.6207466-1.4472103,1.6207466
			c-1.082325,0-1.4469814-0.7740669-1.4469814-1.6207466v-7.9242897h2.8941917V24.6064529z"/>
	</g>
</g>
</svg>
