<?xml version="1.0" encoding="utf-8"?>
<!-- Generator: Adobe Illustrator 16.0.3, SVG Export Plug-In . SVG Version: 6.00 Build 0)  -->
<!DOCTYPE svg PUBLIC "-//W3C//DTD SVG 1.1//EN" "http://www.w3.org/Graphics/SVG/1.1/DTD/svg11.dtd">
<svg version="1.1" id="Vogue" xmlns="http://www.w3.org/2000/svg" xmlns:xlink="http://www.w3.org/1999/xlink" x="0px" y="0px"
	 width="595.28px" height="152.653px" viewBox="0 0 595.28 152.653" style="enable-background:new 0 0 595.28 152.653;"
	 xml:space="preserve">
<style type="text/css">
<![CDATA[
	.st0{clip-path:url(#SVGID_2_);fill:#ffffff;}
]]>
</style>
<g>
	<defs>
		<rect id="SVGID_1_" width="595.28" height="152.653"/>
	</defs>
	<clipPath id="SVGID_2_">
		<use xlink:href="#SVGID_1_"  style="overflow:visible;"/>
	</clipPath>
	<path class="st0" d="M0.26,4.229h52.459c0.306,0,0.209,1.546,0,1.546H41.893c0,0-3.03-0.129-2.128,1.548
		c0.185,0.339,37.058,101.18,37.058,101.18s0.644,1.738,1.16,1.932c0,0,32.77-101.243,32.802-101.341
		c0.334-1.002,1.5-3.254-0.516-3.254H98.412c-0.21,0-0.21-1.545,0-1.545h28.227c0.208,0,0.208,1.545,0,1.545h-10.506
		c-2.88-0.056-2.898,0.83-3.414,2.321c-0.261,0.753-45.628,142.166-45.628,142.166s-0.204-0.611-0.387-1.157
		C47.526,93.671,17.755,16.46,15.405,8.225C14.7,5.756,14.341,5.833,12.892,5.84c-0.518,0.003-12.261,0-12.632,0
		C-0.111,5.84-0.062,4.229,0.26,4.229"/>
	<path class="st0" d="M136.804,75.451c0-40.471,7.769-73.548,36.465-73.537c30.856,0.012,36.917,34.449,36.917,73.537
		c0,40.469-5.888,75.384-36.656,75.35C140.492,150.765,136.804,117.993,136.804,75.451 M172.952,151.961
		c30.61,0.108,63.735-33.791,63.816-75.735c0.083-43.926-31.759-75.215-63.298-75.475c-32.271-0.265-63.233,35.175-63.233,75.475
		C110.237,117.913,139.492,151.845,172.952,151.961"/>
	<path class="st0" d="M323.415,89.529h11.982c0,0,2.227-0.235,2.204,0.841c0,0.066-0.002,34.267-0.002,34.267
		c0,26.36-26.268,26.654-33.695,25.813c-27.462-3.105-28.037-59.807-28.176-74.7c-0.373-40.469,5.984-75.716,33.615-74.314
		c32.816,1.663,41.396,48.68,41.922,50.79c1.091,0.388,1.103-0.52,1.103-0.52l0.063-51.296c0,0-0.224-0.433-0.872,0.166
		c-0.23,0.221-0.5,0.487-0.812,0.805c-14.518,14.837-21.785-0.685-42.886-1.366c-25.991-0.839-58.285,35.197-58.7,76.769
		c-0.415,41.837,27.053,74.076,57.082,75.219c16.282,0.618,15.931-3.912,36.018-10.138c12.283-3.81,18.072,4.468,18.526,7.9
		c0.777,0.518,0.842-0.389,0.842-0.389V90.567c0-1.165,1.619-0.975,1.619-0.975h11.075c0.275,0,0.275-1.617,0-1.617h-50.972
		C322.978,87.975,322.978,89.529,323.415,89.529"/>
	<path class="st0" d="M592.619,4.21v52.695c0,0.258-1.035,0.324-1.035,0c0-0.322,0.971-51.199-46.258-51.199h-17.715
		c-0.992,0-1.586,0.174-1.586,0.936v65.824c0,0.616,0.615,0.946,1.558,0.946h5.921c28.106,0,25.844-28.2,25.844-28.523
		c0-0.323,1.096-0.259,1.096,0c0,0.26,0.061,59.212,0.061,59.469c0,0.259-0.837,0.325-0.837,0c0-0.322-0.643-29.395-26.81-29.395
		h-5.274c-0.908,0-1.558,0.336-1.558,0.96v70.833c0,0.503,0.599,0.957,1.586,0.958c3.961,0.013,14.169,0.044,16.998,0.052
		c50.756,0.13,50.076-54.359,50.076-54.617c0-0.257,1.291-0.257,1.291,0v56.434H488.861c-0.324,0-0.292-1.548,0-1.548h10.705
		c0.955,0,1.568-0.33,1.568-0.954c0.002-12.281,0.017-139.32,0-140.378c-0.013-0.909-1.188-0.968-1.568-0.968s-23.703,0-23.703,0
		s-1.548,0.011-1.548,0.902c0,9.983-0.01,94.276,0,106.269v0.056c0.059,29.723-22.789,39.413-39.224,39.692l-0.025-0.05
		c-19.332,0.099-54.068-3.162-54.068-46.013c0,0-0.091-97.508-0.13-98.859c-0.066-2.129-2.702-2.019-2.702-2.019
		s-10.993,0.022-11.349,0.022c-0.354,0-0.289-1.549,0-1.549h53.489c0.292,0,0.195,1.549,0,1.549c-0.19,0-11.376-0.003-11.376-0.003
		s-3.509-0.202-3.509,2.128c0,3.287,0.066,108.785,0.066,112.523c0,16.447,9.308,31.018,29.578,30.676
		c15.8-0.266,37.759-9.584,37.701-38.153c-0.016-1.395-0.001-95.671,0-106.269c-0.064-0.827-1.675-0.902-1.675-0.902h-14.854
		c-0.323,0-0.262-1.489,0.06-1.489C456.621,4.245,592.619,4.21,592.619,4.21"/>
</g>
</svg>
