<?xml version="1.0" encoding="UTF-8" standalone="no"?>
<svg width="100px" height="100px" viewBox="0 0 100 100" version="1.1" xmlns="http://www.w3.org/2000/svg" xmlns:xlink="http://www.w3.org/1999/xlink">
    <!-- Generator: Sketch 41 (35326) - http://www.bohemiancoding.com/sketch -->
    <title>Rectangle 9</title>
    <desc>Created with Sketch.</desc>
    <defs></defs>
    <g id="article" stroke="none" stroke-width="1" fill="none" fill-rule="evenodd">
        <g id="內文-展開-不可留言-延伸閱讀(無顯示圖)-追蹤作者(未確認)" transform="translate(-110.000000, -3261.000000)">
            <g id="延伸閱讀" transform="translate(20.000000, 3186.000000)">
                <g transform="translate(0.000000, 41.000000)" id="H3">
                    <g>
                        <g id="pic" transform="translate(90.000000, 34.000000)">
                            <g id="Page-1" transform="translate(5.000000, 4.000000)">
                                <path d="M49.2231942,93.3908364 C30.4603786,93.3908364 15.1962039,78.1434182 15.1962039,59.4050909 C15.1962039,40.6641455 30.4603786,25.4184727 49.2231942,25.4184727 C67.9868835,25.4184727 83.2510583,40.6641455 83.2510583,59.4050909 C83.2510583,78.1434182 67.9868835,93.3908364 49.2231942,93.3908364" id="Fill-45" fill="#DEF4FF"></path>
                                <path d="M27.7896408,27.4251055 C33.111,24.1043782 39.3970194,22.1861236 46.132165,22.1861236 C65.2733301,22.1861236 80.7900291,37.6840145 80.7900291,56.8019782" id="Stroke-1" stroke="#E6E7E7" stroke-width="2" stroke-linecap="round"></path>
                                <path d="M31.4866311,75.1237527 L41.2144951,62.4526255 L45.8639126,68.3679709 L53.0551748,58.2277527 L64.8923592,75.1237527 L31.4866311,75.1237527 Z M38.2541068,50.2030255 C39.9457573,50.2030255 41.4259515,51.6814255 41.4259515,53.3710255 C41.4259515,55.0597527 39.9457573,56.5381527 38.2541068,56.5381527 C36.5633301,56.5381527 35.0822621,55.0597527 35.0822621,53.3710255 C35.0822621,51.6814255 36.3492524,50.2030255 38.2541068,50.2030255 L38.2541068,50.2030255 Z" id="Fill-129" fill="#F0FAFF"></path>
                                <path d="M59.5446117,5.97931636 C59.5446117,6.32666182 59.2623786,6.60855273 58.9128641,6.60855273 C58.5659709,6.60855273 58.2837379,6.32666182 58.2837379,5.97931636 C58.2837379,5.63197091 58.5659709,5.35008 58.9128641,5.35008 C59.2623786,5.35008 59.5446117,5.63197091 59.5446117,5.97931636 Z" id="Stroke-59" stroke="#D7DAD9"></path>
                                <path d="M45.3745922,14.9303564 C45.3745922,15.2873018 45.1273107,15.5770473 44.8197379,15.5770473 C44.5130388,15.5770473 44.2640097,15.2873018 44.2640097,14.9303564 L44.2640097,12.3435927 C44.2640097,11.9857745 44.5130388,11.6960291 44.8197379,11.6960291 C45.1273107,11.6960291 45.3745922,11.9857745 45.3745922,12.3435927 L45.3745922,14.9303564 Z" id="Fill-61" fill="#D2EAF7"></path>
                                <path d="M46.115301,13.0821818 C46.4726796,13.0821818 46.7627767,13.3300364 46.7627767,13.6372364 C46.7627767,13.9426909 46.4726796,14.1914182 46.115301,14.1914182 L43.5245243,14.1914182 C43.1662718,14.1914182 42.8761748,13.9426909 42.8761748,13.6372364 C42.8761748,13.3300364 43.1662718,13.0821818 43.5245243,13.0821818 L46.115301,13.0821818 Z" id="Fill-63" fill="#D2EAF7"></path>
                                <path d="M20.9273592,3.30449455 C20.9273592,3.65184 20.6451262,3.93373091 20.2956117,3.93373091 C19.9487184,3.93373091 19.6664854,3.65184 19.6664854,3.30449455 C19.6664854,2.95714909 19.9487184,2.67525818 20.2956117,2.67525818 C20.6451262,2.67525818 20.9273592,2.95714909 20.9273592,3.30449455" id="Fill-65" fill="#D7DAD9"></path>
                                <path d="M70.0778447,11.0669673 C70.0778447,11.4143127 69.7956117,11.6962036 69.4478447,11.6962036 C69.1000777,11.6962036 68.8178447,11.4143127 68.8178447,11.0669673 C68.8178447,10.7196218 69.1000777,10.4377309 69.4478447,10.4377309 C69.7956117,10.4377309 70.0778447,10.7196218 70.0778447,11.0669673" id="Fill-69" fill="#D2EAF7"></path>
                                <path d="M6.8964466,22.8939927 C6.8964466,24.6761018 5.4503301,26.1195927 3.66693204,26.1195927 C1.88266019,26.1195927 0.436543689,24.6761018 0.436543689,22.8939927 C0.436543689,21.1127564 1.88266019,19.6683927 3.66693204,19.6683927 C5.4503301,19.6683927 6.8964466,21.1127564 6.8964466,22.8939927 Z" id="Stroke-71" stroke="#DEF4FF"></path>
                                <path d="M11.4752621,30.9969164 C11.4752621,31.3442618 11.1930291,31.6270255 10.8443883,31.6270255 C10.4966214,31.6270255 10.2152621,31.3442618 10.2152621,30.9969164 C10.2152621,30.6495709 10.4966214,30.36768 10.8443883,30.36768 C11.1930291,30.36768 11.4752621,30.6495709 11.4752621,30.9969164" id="Fill-75" fill="#D8D8D7"></path>
                                <path d="M76.6944175,5.50717091 C76.6944175,6.11546182 76.2723786,6.60855273 75.7489806,6.60855273 C75.2264563,6.60855273 74.8035437,6.11546182 74.8035437,5.50717091 L74.8035437,1.10164364 C74.8035437,0.493352727 75.2264563,0.000261818182 75.7489806,0.000261818182 C76.2723786,0.000261818182 76.6944175,0.493352727 76.6944175,1.10164364 L76.6944175,5.50717091 Z" id="Fill-77" fill="#D7DAD9"></path>
                                <path d="M77.9546796,2.36055273 C78.562835,2.36055273 79.0582718,2.78295273 79.0582718,3.30484364 C79.0582718,3.82586182 78.562835,4.24826182 77.9546796,4.24826182 L73.5438058,4.24826182 C72.9347767,4.24826182 72.4402136,3.82586182 72.4402136,3.30484364 C72.4402136,2.78295273 72.9347767,2.36055273 73.5438058,2.36055273 L77.9546796,2.36055273 Z" id="Fill-79" fill="#D7DAD9"></path>
                                <path d="M20.9273592,3.30449455 C20.9273592,3.65184 20.6451262,3.93373091 20.2956117,3.93373091 C19.9487184,3.93373091 19.6664854,3.65184 19.6664854,3.30449455 C19.6664854,2.95714909 19.9487184,2.67525818 20.2956117,2.67525818 C20.6451262,2.67525818 20.9273592,2.95714909 20.9273592,3.30449455" id="Fill-89" fill="#D7DAD9"></path>
                                <path d="M20.9273592,3.30449455 C20.9273592,3.65184 20.6451262,3.93373091 20.2956117,3.93373091 C19.9487184,3.93373091 19.6664854,3.65184 19.6664854,3.30449455 C19.6664854,2.95714909 19.9487184,2.67525818 20.2956117,2.67525818 C20.6451262,2.67525818 20.9273592,2.95714909 20.9273592,3.30449455 Z" id="Stroke-91" stroke="#D7DAD9" stroke-width="0.721"></path>
                                <path d="M89.9274757,19.6685673 C89.9274757,20.7114764 89.0799029,21.5571491 88.0366019,21.5571491 C86.9941748,21.5571491 86.1466019,20.7114764 86.1466019,19.6685673 C86.1466019,18.6256582 86.9941748,17.7799855 88.0366019,17.7799855 C89.0799029,17.7799855 89.9274757,18.6256582 89.9274757,19.6685673" id="Fill-95" fill="#DEF4FF"></path>
                                <path d="M59.5446117,5.97931636 C59.5446117,6.32666182 59.2623786,6.60855273 58.9128641,6.60855273 C58.5659709,6.60855273 58.2837379,6.32666182 58.2837379,5.97931636 C58.2837379,5.63197091 58.5659709,5.35008 58.9128641,5.35008 C59.2623786,5.35008 59.5446117,5.63197091 59.5446117,5.97931636" id="Fill-103" fill="#D7DAD9"></path>
                                <path d="M20.9273592,3.30449455 C20.9273592,3.65184 20.6451262,3.93373091 20.2956117,3.93373091 C19.9487184,3.93373091 19.6664854,3.65184 19.6664854,3.30449455 C19.6664854,2.95714909 19.9487184,2.67525818 20.2956117,2.67525818 C20.6451262,2.67525818 20.9273592,2.95714909 20.9273592,3.30449455 Z" id="Stroke-113" stroke="#D7DAD9" stroke-width="0.721"></path>
                                <path d="M11.4752621,56.8016291 C11.4752621,49.7604655 13.5802136,43.2106473 17.1968155,37.7438836" id="Stroke-119" stroke-opacity="0.3" stroke="#ADB1B2" stroke-width="2" stroke-linecap="round"></path>
                                <path d="M12.584534,66.6845673 C12.3215243,65.2349673 12.1502621,63.7609309 12.0768641,62.2738036" id="Stroke-121" stroke-opacity="0.3" stroke="#ADB1B2" stroke-width="2" stroke-linecap="round"></path>
                                <path d="M79.9344175,64.4789236 C76.4375243,79.90176 62.631699,91.4173964 46.1319903,91.4173964 C34.3332524,91.4173964 23.9107282,85.5282327 17.6509223,76.5312873" id="Stroke-123" stroke="#E6E7E7" stroke-width="2" stroke-linecap="round"></path>
                                <path d="M46.7629515,91.7618618 C32.6215922,91.7618618 21.3383883,85.1361164 15.7706214,73.5759709 L15.7706214,34.4699345 C15.7706214,32.70528 17.208,31.2696436 18.9747961,31.2696436 L74.5519806,31.2696436 C76.3187767,31.2696436 77.7561553,32.70528 77.7561553,34.4699345 L77.7561553,71.0790982 C72.5099417,83.2667345 59.7937282,91.7618618 46.7629515,91.7618618" id="Fill-125" fill="#FEFEFE"></path>
                                <path d="M74.5517184,30.2993455 L18.974534,30.2993455 C16.6686117,30.2993455 14.7987087,32.1669818 14.7987087,34.4701091 L14.7987087,73.7960727 C20.9449223,86.7682909 33.411233,92.7325091 46.7626893,92.7325091 C60.284534,92.7325091 73.3721068,83.9319273 78.7275437,71.2773818 L78.7275437,34.4701091 C78.7275437,32.1669818 76.8585146,30.2993455 74.5517184,30.2993455 M74.5517184,32.2402909 C75.7828835,32.2402909 76.7851165,33.2404364 76.7851165,34.4701091 L76.7851165,70.8776727 C71.6402621,82.6219636 59.3522039,90.7915636 46.7626893,90.7915636 C33.0914272,90.7915636 22.1760874,84.4424727 16.7420097,73.3536 L16.7420097,34.4701091 C16.7420097,33.2404364 17.7433689,32.2402909 18.974534,32.2402909 L74.5517184,32.2402909" id="Fill-127" fill="#E6E7E7"></path>
                                <path d="M31.4866311,75.1237527 L41.2144951,62.4526255 L45.8639126,68.3679709 L53.0551748,58.2277527 L64.8923592,75.1237527 L31.4866311,75.1237527 Z M38.2541068,50.2030255 C39.9457573,50.2030255 41.4259515,51.6814255 41.4259515,53.3710255 C41.4259515,55.0597527 39.9457573,56.5381527 38.2541068,56.5381527 C36.5633301,56.5381527 35.0822621,55.0597527 35.0822621,53.3710255 C35.0822621,51.6814255 36.3492524,50.2030255 38.2541068,50.2030255 L38.2541068,50.2030255 Z" id="Fill-129" fill="#DEF4FF"></path>
                            </g>
                        </g>
                    </g>
                </g>
            </g>
        </g>
    </g>
</svg>