<svg width="26" height="26" viewBox="0 0 26 26" xmlns="http://www.w3.org/2000/svg"><title>分享工具列</title><g fill="none" fill-rule="evenodd"><path opacity=".4" d="M0 0h26v26H0z"/><g fill-rule="nonzero" fill="#006AC6"><path d="M19.713 16.09v1.9c0 1.85-1.195 3.29-2.58 3.29H6.766c-1.542 0-2.865-1.594-2.865-3.633v-7.4c0-2.04 1.323-3.634 2.865-3.634h2.283c.497 0 .9-.403.9-.9s-.403-.9-.9-.9H6.765C4.148 4.813 2.1 7.28 2.1 10.246v7.4c0 2.968 2.048 5.434 4.665 5.434h10.37c2.458 0 4.378-2.312 4.378-5.09v-1.9c0-.497-.403-.9-.9-.9s-.9.403-.9.9z"/><path d="M19.12 5.213c-3.844.617-8.056 4.218-9.753 9.196-.18.522.1 1.09.623 1.268.523.18 1.09-.1 1.27-.623 1.46-4.282 5.07-7.37 8.176-7.868.546-.087.917-.6.83-1.146-.088-.544-.6-.915-1.147-.827z"/><path d="M12.862 4.015l5.563 1.49c.683.184 1.09.886.906 1.57l-1.48 5.53c-.144.533.172 1.082.706 1.225.533.142 1.082-.174 1.225-.708l1.483-5.53c.47-1.75-.57-3.55-2.32-4.018l-5.563-1.49c-.534-.144-1.082.173-1.225.706-.143.534.174 1.082.707 1.225z"/></g></g></svg>
