<?xml version="1.0" encoding="UTF-8" standalone="no"?>
<svg width="35" height="35" viewBox="0 0 35 35" version="1.1" xmlns="http://www.w3.org/2000/svg" xmlns:xlink="http://www.w3.org/1999/xlink">
    <path d="M19.932704,5.080272 L13.605984,5.080272 C11.167504,5.080272 8.730384,6.009152 6.869904,7.869632 C5.009424,9.730112 4.080544,12.167232 4.080544,14.605712 L4.080544,16.708272 C4.080544,19.145392 5.009424,21.583872 6.869904,23.442992 C7.679104,24.253552 8.610704,24.853312 9.591264,25.310272 L10.067264,30.514992 C10.106704,30.765232 10.278064,30.986912 10.533744,31.078032 C10.788064,31.170512 11.061424,31.109312 11.251824,30.942032 L15.926144,26.232352 L19.932704,26.232352 C22.371184,26.232352 24.808304,25.303472 26.668784,23.442992 C28.527904,21.583872 29.458144,19.145392 29.458144,16.708272 L29.458144,14.604352 C29.458144,12.167232 28.527904,9.730112 26.668784,7.869632 C24.808304,6.009152 22.371184,5.080272 19.932704,5.080272 Z" fill="#fff"></path>
</svg>
