<svg width="98" height="20" viewBox="0 0 98 20" xmlns="http://www.w3.org/2000/svg" xmlns:xlink="http://www.w3.org/1999/xlink"><defs><path id="a" d="M45.84.534H0v18.633h45.84V.534z"/></defs><g fill="none" fill-rule="evenodd"><g transform="translate(0 .3)"><mask id="b" fill="#fff"><use xlink:href="#a"/></mask><path d="M6.293 11.836h5.295c.075 0 .096.02.096.095v2.18c0 .08-.024.1-.096.1H6.29c-.07 0-.094-.01-.094-.09v-2.18c0-.07.02-.09.097-.09m7.457-8.6l-3.886-.01v-.72c0-.35-.13-.44-.48-.44h-1.04c-.347 0-.482.09-.482.44v.73l-4.03.01c-.498 0-.885.11-1.156.32-.272.22-.414.55-.414.98v1.2c0 .19-.056.24-.268.19L.846 5.67c-.333-.095-.486-.04-.576.3-.025.096-.118.44-.156.66-.06.342.06.457.396.517.178.03 1.025.223 1.488.327.172.05.24.11.237.255-.003.14-.008.28-.013.42-.002.04 0 .08-.004.12-.02.15-.036.18-.213.32-.363.28-.78.53-1.13.72-.25.14-.506.27-.55.29-.315.14-.4.28-.253.6.087.19.21.46.258.58.148.32.304.34.62.2.173-.08.205-.09.667-.35l.234-.13c.1-.06.15-.03.14.08-.1 1-.08 1.59-.31 2.09-.14.31-.29.38-.61.52s-.4.28-.25.6c.07.13.15.37.28.69.15.32.31.34.62.2.18-.08.62-.25.9-.55.5-.51.62-.77.79-1.88.11-.72.15-.89.27-2.75.01-.17.13-.24.24-.11l.56.6c.17.2.28.21.57.07C6.13 9.5 7.11 8.84 8 8.07c.108-.08.178-.02.178.08v2.385H5.48c-.473 0-.73.242-.73.73v3.42c0 .486.26.733.73.733h7.033c.468 0 .725-.25.725-.73v-3.41c0-.48-.255-.73-.725-.73H9.71V7.32c0-.352.136-.442.48-.442h3.256c.348 0 .48-.09.48-.446v-.51c0-.352-.132-.442-.48-.442H4.72c-.348 0-.48.093-.48.444l.002.51c0 .35.13.44.477.44h2.21c.13 0 .19.078.09.172-.8.806-1.83 1.366-2.93 1.846-.22.08-.37-.02-.36-.244.02-.49.04-.99.04-1.5 0 0 .03-1.935.03-2.064 0-.353.13-.443.48-.443h9.45c.25 0 .48-.03.48-.45v-.51c0-.27-.09-.44-.48-.44m.34 5.85c-.93-.72-1.87-1.33-2.83-1.86-.17-.09-.29-.06-.41.04-.19.17-.5.44-.6.55-.13.13-.14.33.02.44.9.51 2.05 1.34 2.7 1.9.08.08.18.1.31 0 .26-.2.72-.65.82-.74.12-.12.13-.21-.03-.32m10.83 1.44h-6.4c-.11 0-.07-.07.01-.09.94-.19 1.79-.35 2.53-.65.15-.05.29-.12.44-.18.19-.09.34-.09.64.03.76.33 1.69.56 2.76.8.14.03.13.11.01.11m-.5 1.39v2.19c0 .08-.03.1-.1.1H19c-.07 0-.097-.02-.097-.1v-2.18c0-.08.025-.1.1-.1h5.31c.074 0 .1.02.1.1m-4.25-5.34h2.953c.196 0 .24.1.113.22-.11.1-.74.54-1.24.85-.23.126-.38.126-.59 0-.55-.313-1.22-.78-1.33-.86-.13-.092-.09-.203.08-.203m7.96 2.93c-2.04-.25-3.31-.52-4.38-.87-.19-.08-.16-.19 0-.325.72-.47 1.5-1.04 2.34-1.72.08-.07.13-.106.18-.15.11-.105.14-.277-.01-.4-.08-.065-.16-.12-.45-.32l-.46-.315c-.25-.15-.39-.19-.67-.19H20.6s-.27.02-.43-.138c-.15-.11-.29-.23-.41-.32-.19-.14-.32-.118-.48.034-.14.13-.32.27-.67.544-.38.3-.58.48-1.02.77-.48.33-1.82.96-1.984 1.02-.17.07-.23.21-.1.35.1.1.52.49.765.728.16.13.27.123.5.02.2-.09 1.32-.693 1.53-.8.21-.105.34-.077.46.027.1.084.66.53 1.11.864.15.12.17.24.01.31-1.39.52-2.92.87-4.9 1.03-.25.03-.3.15-.27.32l.13.79c.02.15.14.22.34.21.65-.07 1.62-.19 1.84-.26.22-.06.32.02.32.16v3.82c0 .48.26.73.74.73h7.16c.47 0 .73-.25.73-.73v-3.77c0-.19.12-.254.31-.21.2.043.93.185 1.44.264.29.038.424.03.494-.21s.184-.682.23-.91c.04-.22-.06-.31-.31-.35M15.77 5.52h.554c.34 0 .474-.09.474-.44v-.172c0-.345.13-.44.476-.44h8.93c.343 0 .473.093.473.442v.167c0 .358.134.445.483.445h.554c.35 0 .478-.09.478-.44v-.71c.005-.416-.126-.757-.4-.98-.27-.22-.667-.316-1.16-.316h-3.93v-.56c0-.353-.134-.444-.477-.444h-.994c-.34 0-.48.09-.48.442v.56h-3.89c-.49 0-.88.1-1.15.318-.28.222-.41.562-.41.98v.708c0 .354.14.443.48.443m23.98 7.893h-.57c-.18-.002-.31-.022-.41-.107-.1-.09-.13-.23-.13-.41v-.51c0-.18.04-.32.14-.41.1-.08.24-.1.42-.1.19-.01.22-.01.38 0 .43-.01.69-.1.85-.29.16-.2.21-.47.21-.81 0-.5-.22-1.18-.63-1.9-.23-.41-.58-.81-.88-1.14-.12-.14-.19-.24-.19-.37 0-.09.03-.17.07-.28.227-.65 1.13-3.35 1.15-3.4v-.02c-.01 0-.024-.01-.044-.01h-2.05c.01 0 0 0 0 .03v11.28c0 .18-.03.31-.13.4-.1.08-.23.1-.41.1h-.45c-.175-.01-.312-.02-.412-.11-.1-.09-.13-.22-.13-.41V2.72c0-.182.03-.317.138-.404.1-.084.23-.103.41-.103h3.78c.34-.01.49.102.73.47.014.02.03.04.126.178.12.17.18.29.18.43 0 .1-.025.19-.06.31-.26.8-1.11 3.1-1.237 3.38-.07.15-.11.23-.11.29 0 .05.02.11.14.22.58.55 1.01 1.15 1.26 1.89.17.5.253 1.03.253 1.54-.01 1.54-.61 2.52-2.38 2.51M44.7 2.97C40.785 1.44 36.96.66 32.75.54c-.938.02-1.485.352-1.71.93-.37.914-.695 1.823-.977 2.732.516-.076 1.012-.148 1.14-.176.424-.1.41-.14.428-.45v-.92c0-.18.03-.31.13-.4.1-.09.24-.11.41-.11h.56c.18.008.32.028.42.11.1.09.14.226.13.408v.67c.02.17.04.17.15.18.07 0 .16-.02.25-.04.19-.05.79-.256 1.29-.453.11-.05.2-.08.27-.08.13 0 .22.08.29.21.12.2.35.67.38.72l.01.01c.03.06.04.11.04.15 0 .11-.07.19-.14.22-.09.05-.21.09-.34.14-.26.09-.56.18-.73.22-.36.11-.63.18-1 .27-.34.1-.41.14-.43.47v1c.02.33.08.36.42.38h1.71c.18 0 .32.03.42.11.1.09.13.22.13.4v.36c0 .19-.03.32-.13.41-.1.08-.232.11-.41.11H33.7c-.34.02-.39.04-.41.38v1.1c.02.33.074.36.414.38h1.71c.18 0 .318.02.416.11.1.09.13.22.13.407v.366c0 .18-.037.316-.13.406-.1.085-.236.104-.41.104h-1.73c-.33.01-.39.05-.404.36v.46c0 .75-.13 1.18-.416 1.76-.287.58-.75 1.05-1.325 1.31-.106.05-.217.1-.335.13 1.07.37 2.13.69 3.21.95-.07.49-.33 1.49-1.24 2.31-.15.1-.17.16-.1.3.02.04.04.08.07.12.05.09.19.16.37.05 1.15-.51 2.1-1.22 2.91-2.36 1.84.33 3.73.51 5.7.56.704.01 1.04-.36 1.37-1.01 1.57-3.91 2.315-7.68 2.35-11.91-.04-.63-.28-.99-1.126-1.44M31.64 9.6v-.89c-.017-.33-.078-.36-.41-.377h-2.044c-.03 0-.06-.004-.087-.007-.09.544-.17 1.092-.23 1.645h2.35c.33-.01.39-.04.41-.37m-.41-2.64c.33-.02.4-.04.41-.37v-.95c0-.06-.02-.12-.07-.17-.05-.04-.11-.07-.19-.07h-.03c-.05 0-.07 0-.12.01-.37.07-1.07.2-1.59.29-.11.43-.21.85-.3 1.28h1.87m.41 5.25v-.47c-.02-.33-.08-.35-.42-.37h-2.47c-.05.72-.08 1.44-.08 2.18.03.68.3.91.82 1.22.21.09.43.17.64.25v-.8c0-.11.03-.18.08-.22.07-.05.16-.08.31-.1.22-.05.4-.13.54-.24.19-.16.35-.38.46-.76.07-.24.11-.32.12-.67" fill="#006AC6" mask="url(#b)"/></g><path d="M54.413 8.963c-.493.277-1.095.276-1.564.276h-.92c-.04 0-.07-.01-.11-.04-.03-.03-.04-.07-.04-.11V5.31c0-.18.03-.306.12-.39.09-.076.22-.1.4-.1h.53c.88 0 1.51 0 1.98.667.39.566.43 1.167.43 1.54 0 1.09-.37 1.65-.86 1.93m2.91-1.893c0-.88-.24-1.94-.99-2.72-.87-.93-2.14-1.005-3.49-1.005h-1.47c-.49 0-.88.08-1.13.3-.27.21-.4.53-.4.95v10.58c0 .17.04.26.1.32.06.05.17.08.34.08h1.05c.17 0 .28-.03.34-.08.06-.06.1-.15.1-.33V10.9c0-.04 0-.08.03-.11.03-.025.06-.03.1-.03h.95c.79 0 2.15 0 3.05-.64 1.13-.76 1.38-2.202 1.38-3.062m3.66-3.325c0-.172-.03-.266-.1-.32-.07-.056-.17-.08-.35-.08h-1.05c-.17 0-.28.024-.34.08-.06.053-.097.15-.097.32V15.17c0 .173.04.27.1.32.06.056.17.08.34.08h1.06c.18 0 .29-.024.35-.08.066-.05.097-.147.097-.32V3.747zm5.56 7.355c.03-.073.07-.12.14-.122.07.01.1.06.13.12.05.104 1.65 3.71 1.81 4.07.16.35.25.41.66.416h1.27c.18-.004.29-.063.29-.198 0-.05-.02-.11-.05-.187C70.6 14.83 68 9.4 67.9 9.2c-.06-.13-.094-.218-.094-.31 0-.1.04-.19.11-.32.11-.2 2.33-4.563 2.47-4.844.057-.106.08-.18.078-.237 0-.06-.02-.09-.064-.12-.046-.03-.13-.04-.233-.04h-.913c-.41 0-.51.12-.673.42l-1.66 3.32c-.03.05-.06.09-.12.1-.06 0-.09-.05-.12-.12l-1.46-3.29c-.15-.31-.26-.42-.66-.43h-1.27c-.18 0-.29.06-.29.19 0 .05.01.12.05.19.15.33 2.01 4.09 2.53 5.21.05.13.08.22.08.31 0 .1-.03.19-.09.31-.1.21-2.76 5.32-2.93 5.65-.05.1-.07.17-.07.22 0 .06.02.09.07.12s.13.04.24.04h.97c.36 0 .48-.11.64-.41l2.03-4.06M80.3 3.75c0-.17-.03-.26-.095-.32-.06-.05-.17-.08-.34-.08h-.73c-.17 0-.28.03-.344.08-.06.06-.09.15-.09.33v8.354c-.01.014-.02.046-.06.05-.06-.014-.06-.04-.08-.07l-3.77-8.33s-.06-.106-.17-.21c-.11-.11-.28-.21-.49-.21H72.7c-.173-.004-.28.02-.342.075-.063.05-.096.15-.096.32v11.43c0 .17.033.27.094.32.063.05.17.08.342.08h.73c.172 0 .282-.03.346-.08.06-.05.092-.15.092-.32v-9.3c0-.02.002-.04.01-.06.003-.02.02-.05.055-.05.05.01.06.04.08.06.48 1.05 4.18 9.08 4.29 9.3.13.24.21.41.66.42h.93c.18 0 .29-.03.35-.08.07-.06.1-.15.1-.32V3.74zm8.96 10.66c0-.17-.03-.26-.094-.32-.064-.05-.174-.075-.35-.075H84.7c-.18 0-.31-.02-.405-.1-.09-.08-.128-.21-.128-.39V10.2c0-.044.005-.083.036-.114.03-.027.062-.027.103-.027h3.34c.172 0 .282-.03.342-.08.06-.06.094-.15.094-.33v-.74c0-.18-.032-.27-.096-.32-.06-.06-.17-.08-.34-.08h-3.34c-.04 0-.076-.01-.106-.04s-.033-.07-.033-.11v-3c0-.18.03-.31.124-.39.09-.08.23-.1.4-.1h4.02c.18 0 .29-.03.35-.08.07-.05.1-.15.1-.32v-.73c0-.18-.03-.27-.09-.32-.06-.06-.17-.08-.34-.08h-4.96c-.49 0-.87.08-1.13.3-.26.21-.39.54-.39.95v9.71c0 .42.13.73.39.95.27.21.65.3 1.14.3h5.05c.18 0 .29-.03.35-.08.06-.06.1-.15.1-.32v-.77zm5.98-9.27c0-.04.004-.08.034-.107.03-.03.07-.03.11-.03h2.16c.17 0 .28-.027.345-.08.06-.058.09-.15.09-.33v-.84c0-.177-.03-.27-.09-.326-.07-.057-.18-.08-.35-.08h-6.51c-.18 0-.28.023-.35.08-.06.053-.1.15-.1.323v.84c0 .17.03.27.09.327.06.052.17.076.34.075h2.13c.04 0 .08.007.11.03.03.03.04.07.04.11v10.04c0 .17.03.27.09.32.06.06.17.08.34.08h1.06c.17 0 .28-.02.34-.08.06-.05.1-.15.1-.322V5.13z" fill="#006AC6"/></g></svg>