<svg xmlns="http://www.w3.org/2000/svg" width="30" height="30">
  <path fill="#FFF" fill-rule="evenodd" d="M4.58 7.594c-.118-.238-.105-.524.035-.75.14-.225.384-.356.642-.343h19.51c.26 0 .503.14.634.375.136.234.136.522 0 .756-.13.233-.37.375-.63.37H5.19c-.26-.01-.49-.165-.61-.403zm10.66 6.746l-7.996 7.995c-.264.264-.715.24-1.008-.053-.293-.293-.316-.744-.053-1.008l8.416-8.416c.025-.042.06-.083.1-.12.05-.05.1-.09.155-.125.123-.085.27-.122.42-.11.112.003.22.034.315.09.068.038.13.085.19.143.04.04.075.083.105.128l8.41 8.412c.265.263.24.714-.052 1.007-.292.293-.744.317-1.007.053L15.24 14.34z"/>
</svg>
