<svg width="32" height="32" viewBox="0 0 32 32" xmlns="http://www.w3.org/2000/svg"><title>btn_share_copylink</title><g fill="none" fill-rule="evenodd"><rect fill="#51CDD5" width="32" height="32" rx="16"/><path d="M14.29 20.332l-1.624 1.623c-.664.665-1.748.663-2.416-.005-.67-.67-.67-1.752 0-2.42l3.35-3.35c.074-.075.274-.21.522-.275.237-.062.472-.045.738.082.498.24 1.095.03 1.334-.468.24-.5.03-1.096-.468-1.336-.71-.34-1.43-.393-2.114-.213-.648.172-1.124.493-1.427.796l-3.35 3.35c-1.45 1.45-1.45 3.8 0 5.248 1.45 1.448 3.8 1.452 5.245.005l1.623-1.624c.39-.39.39-1.023 0-1.414-.39-.39-1.023-.39-1.414 0z" fill="#FFF" fill-rule="nonzero"/><path d="M17.71 12.668l1.624-1.623c.664-.665 1.748-.663 2.416.005.668.67.67 1.752 0 2.42l-3.35 3.35c-.074.075-.274.21-.522.275-.237.062-.473.045-.738-.082-.498-.24-1.095-.03-1.334.468-.24.5-.03 1.096.468 1.336.71.34 1.43.393 2.113.213.65-.172 1.125-.493 1.428-.796l3.35-3.35c1.45-1.45 1.448-3.8 0-5.248-1.45-1.448-3.8-1.452-5.246-.005l-1.624 1.624c-.39.39-.39 1.023 0 1.414.39.39 1.024.39 1.415 0z" fill="#FFF" fill-rule="nonzero"/></g></svg>