<svg width="32" height="32" viewBox="0 0 32 32" xmlns="http://www.w3.org/2000/svg"><title>分享</title><g fill="none" fill-rule="evenodd"><rect fill="#EF8378" width="32" height="32" rx="16"/><path d="M18.162 8c-1.56 0-2.838 1.277-2.838 2.838 0 .276.044.54.12.792l-3.85 2.66c-.484-.383-1.094-.614-1.756-.614-1.56 0-2.838 1.277-2.838 2.838 0 1.56 1.277 2.837 2.838 2.837.665 0 1.277-.233 1.762-.62l3.843 2.66c-.076.255-.12.522-.12.8 0 1.56 1.28 2.837 2.84 2.837 1.56 0 2.837-1.277 2.837-2.838 0-1.56-1.277-2.84-2.838-2.84-.878 0-1.666.405-2.187 1.036l-3.636-2.53c.215-.4.336-.858.336-1.342 0-.486-.126-.942-.343-1.343 1.33-.845 2.302-1.688 3.642-2.53.52.632 1.31 1.036 2.187 1.036 1.56 0 2.838-1.278 2.838-2.838S19.723 8 18.162 8zm0 1.135c.947 0 1.703.756 1.703 1.703 0 .947-.756 1.703-1.703 1.703-.947 0-1.703-.755-1.703-1.702s.755-1.703 1.702-1.703zM9.838 14.81c.947 0 1.703.756 1.703 1.704 0 .947-.755 1.702-1.702 1.702s-1.703-.755-1.703-1.702c0-.948.756-1.703 1.703-1.703zm8.324 5.676c.947 0 1.703.756 1.703 1.703 0 .946-.756 1.702-1.703 1.702-.947 0-1.703-.756-1.703-1.703 0-.948.755-1.704 1.702-1.704z" stroke="#FFF" stroke-width=".6" fill="#FFF" fill-rule="nonzero"/></g></svg>