<svg xmlns="http://www.w3.org/2000/svg" width="25" height="25"><rect width="25" height="25" fill="#00C300" rx="12.5"/><path fill="#FFF" d="M16.523 11.745c.19 0 .344.154.344.344 0 .187-.154.342-.344.342h-.96v.615h.96c.19 0 .344.154.344.344 0 .19-.154.345-.344.345H15.22c-.19 0-.344-.154-.344-.344v-2.606c0-.19.154-.344.344-.344h1.303c.19 0 .344.156.344.345 0 .19-.154.344-.344.344h-.96v.614h.96zm-2.11 1.647c0 .148-.093.28-.234.326-.037.012-.074.018-.11.018-.108 0-.21-.052-.276-.138l-1.335-1.82v1.614c0 .19-.155.344-.345.344-.19 0-.344-.154-.344-.344v-2.607c0-.148.095-.28.236-.326.035-.014.072-.02.11-.02.106 0 .21.052.274.14l1.337 1.817v-1.613c0-.19.154-.344.344-.344.19 0 .345.156.345.345v2.607zm-3.136 0c0 .19-.154.344-.344.344-.19 0-.343-.154-.343-.344v-2.607c0-.19.154-.344.343-.344.19 0 .344.157.344.346v2.607zm-1.348.344H8.624c-.19 0-.344-.154-.344-.344v-2.607c0-.19.155-.344.345-.344.19 0 .344.157.344.346v2.263h.96c.19 0 .342.153.342.343 0 .19-.154.344-.344.344zm9.125-1.746c0-2.935-2.942-5.323-6.56-5.323-3.616 0-6.56 2.388-6.56 5.323.002 2.63 2.335 4.835 5.487 5.252.214.046.504.14.578.323.067.166.044.425.022.593l-.093.562c-.03.165-.134.648.566.353.7-.295 3.777-2.224 5.153-3.808.95-1.043 1.405-2.1 1.405-3.275z"/></svg>
