<svg xmlns="http://www.w3.org/2000/svg" width="23" height="23" xmlns:xlink="http://www.w3.org/1999/xlink"><defs><path id="a" d="M0 0h23v24H0V0z"/></defs><g fill="none" fill-rule="evenodd"><g transform="translate(0 -1)"><mask id="b" fill="#fff"><use xlink:href="#a"/></mask><path fill="#565A5C" d="M20 3V1h-1v2h-3V1h-1v2h-3V1h-1v2H8V1H7v2s-2.002.05-3 0c-.054-.003 0-2 0-2H3v2H0v21h23V3h-3zM1 9h21v14H1V9zm21-1H1V4h2v1.944h1V4h3v1.944h1V4h3v1.944h1V4h3v1.944h1V4h3v1.944h1V4h2v4z" mask="url(#b)"/></g><path fill="#565A5C" d="M17 12.65l-.56-.65-6.195 5.793-3.65-3.858L6 14.55 10.207 19 17 12.65z"/></g></svg>
