<svg xmlns="http://www.w3.org/2000/svg" xmlns:xlink="http://www.w3.org/1999/xlink" width="70px" height="70px" viewBox="0 0 70 70" version="1.1">
    <defs>
        <linearGradient x1="83.1790556%" y1="0%" x2="18.6735756%" y2="112.802847%" id="linearGradient-1">
            <stop stop-color="#35A0DA" offset="0%"/>
            <stop stop-color="#006AC6" offset="100%"/>
        </linearGradient>
    </defs>
    <g id="Page-1" stroke="none" stroke-width="1" fill="none" fill-rule="evenodd">
        <g id="留言列表-無留言" transform="translate(-125.000000, -131.000000)">
            <g id="留言icocn" transform="translate(125.000000, 131.000000)">
                <g id="Group-3" transform="translate(8.160000, 6.675621)"/>
                <path d="M41.0912284,3.94837815 L25.9861476,3.94837815 C20.1642624,3.94837815 14.3456243,6.16608455 9.90371746,10.6079914 C5.46181065,15.0498982 3.24410425,20.8685363 3.24410425,26.6904215 L3.24410425,31.7102957 C3.24410425,37.5289339 5.46181065,43.3508191 9.90371746,47.7894789 C11.8356872,49.7246956 14.0598876,51.1566261 16.4009803,52.2476207 L17.537433,64.67392 C17.6315963,65.2713694 18.0407193,65.8006317 18.6511568,66.0181813 C19.2583472,66.2389778 19.9109958,66.0928624 20.3655769,65.6934805 L31.5255431,54.4490921 L41.0912284,54.4490921 C46.9131136,54.4490921 52.7317517,52.2313857 57.1736585,47.7894789 C61.6123183,43.3508191 63.8332718,37.5289339 63.8332718,31.7102957 L63.8332718,26.6871745 C63.8332718,20.8685363 61.6123183,15.0498982 57.1736585,10.6079914 C52.7317517,6.16608455 46.9131136,3.94837815 41.0912284,3.94837815 Z M22.2699004,21 C20.9242216,21 19.8333333,22.0788381 19.8333333,23.4305556 C19.8333333,24.7729143 20.9234694,25.8611111 22.2699004,25.8611111 L46.563433,25.8611111 C47.9091118,25.8611111 49,24.782273 49,23.4305556 C49,22.0881968 47.909864,21 46.563433,21 L22.2699004,21 Z M22.2699004,33.0555556 C20.9242216,33.0555556 19.8333333,34.1343937 19.8333333,35.4861111 C19.8333333,36.8284699 20.9234694,37.9166667 22.2699004,37.9166667 L46.563433,37.9166667 C47.9091118,37.9166667 49,36.8378286 49,35.4861111 C49,34.1437523 47.909864,33.0555556 46.563433,33.0555556 L22.2699004,33.0555556 Z" id="Combined-Shape" fill="url(#linearGradient-1)"/>
            </g>
        </g>
    </g>
</svg>
