<svg xmlns="http://www.w3.org/2000/svg" width="30" height="20" viewBox="0 0 30 20"><g fill="none" fill-rule="evenodd"><path d="M0 0h30v20H0z"/><path fill="#006AC6" d="M8.242 15.04c-.16.727-.24 1.247-.24 1.56 0 .33.092.582.278.756.186.173.49.296.908.368.42.072 1.043.112 1.873.12L10.82 19H.383l.24-1.155c.915-.043 1.577-.102 1.988-.178.41-.076.723-.195.94-.355.215-.16.39-.38.526-.654.136-.275.28-.75.432-1.43l1.828-8.29c.093-.422.14-.764.14-1.027 0-.244-.05-.422-.153-.532-.1-.11-.24-.165-.42-.165-.168 0-.354.032-.557.095-.203.064-.45.17-.737.324-.286.152-.858.465-1.713.94L2.25 5.263l7.3-3.796h1.726c-.237.897-.5 2.023-.787 3.377L8.24 15.04zm14.892 0c-.16.727-.24 1.247-.24 1.56 0 .33.092.582.278.756.186.173.49.296.908.368.42.072 1.043.112 1.872.12L25.712 19H15.274l.242-1.155c.914-.043 1.576-.102 1.986-.178.41-.076.724-.195.94-.355.216-.16.39-.38.527-.654.135-.275.28-.75.43-1.43l1.83-8.29c.093-.422.14-.764.14-1.027 0-.244-.052-.422-.153-.532-.102-.11-.24-.165-.42-.165-.168 0-.355.032-.558.095-.204.064-.45.17-.737.324-.288.152-.86.465-1.714.94l-.648-1.308 7.3-3.796h1.726c-.237.897-.5 2.023-.787 3.377L23.135 15.04z"/></g></svg>
