<svg xmlns="http://www.w3.org/2000/svg" width="30" height="20" viewBox="0 0 30 20"><path fill="#006AC6" fill-rule="evenodd" d="M14.4 10.29c.686.348 1.198.786 1.537 1.315.338.53.507 1.17.507 1.923 0 1.143-.285 2.146-.857 3.01-.57.862-1.383 1.523-2.437 1.98-1.054.457-2.283.685-3.688.685-1.16 0-2.16-.156-3.003-.47-.843-.313-1.488-.776-1.937-1.39-.448-.613-.672-1.352-.672-2.215 0-1.193.316-2.218.946-3.072.63-.855 1.59-1.562 2.876-2.12l.013-.165c-.56-.44-.986-.937-1.283-1.49-.296-.556-.444-1.154-.444-1.798 0-1.074.288-1.99.863-2.748.577-.758 1.37-1.325 2.382-1.7 1.01-.378 2.164-.566 3.46-.566 1.243 0 2.274.167 3.09.5.817.336 1.41.784 1.778 1.347.368.563.552 1.2.552 1.91 0 1.11-.3 2.06-.9 2.857-.602.796-1.53 1.477-2.782 2.044v.165zM9.437 7.156c0 .415.052.78.158 1.098.106.318.296.576.572.775.275.2.65.298 1.123.298.626 0 1.185-.182 1.676-.546.49-.364.876-.88 1.155-1.55.28-.667.42-1.412.42-2.233 0-.72-.154-1.25-.463-1.593-.31-.343-.773-.514-1.39-.514-.584 0-1.09.133-1.518.4-.428.266-.77.624-1.03 1.072-.257.45-.44.933-.545 1.454-.106.52-.158.967-.158 1.34zm-1.98 8.468c0 .745.166 1.29.5 1.63.335.344.85.516 1.543.516.406 0 .76-.06 1.06-.173.3-.114.586-.298.857-.552.27-.254.514-.588.73-1.003.216-.415.385-.897.508-1.447s.184-1.134.184-1.752c0-.694-.164-1.223-.49-1.587-.326-.364-.798-.546-1.415-.546-.694 0-1.304.23-1.83.692-.523.46-.93 1.102-1.217 1.923-.288.82-.432 1.587-.432 2.298z"/></svg>
