<svg xmlns="http://www.w3.org/2000/svg" width="30" height="20" viewBox="0 0 30 20"><g fill="none" fill-rule="evenodd"><path d="M0 0h30v20H0z"/><path fill="#006AC6" d="M8.242 15.04c-.16.727-.24 1.247-.24 1.56 0 .33.092.582.278.756.186.173.49.296.908.368.42.072 1.043.112 1.873.12L10.82 19H.383l.24-1.155c.915-.043 1.577-.102 1.988-.178.41-.076.723-.195.94-.355.215-.16.39-.38.526-.654.136-.275.28-.75.432-1.43l1.828-8.29c.093-.422.14-.764.14-1.027 0-.244-.05-.422-.153-.532-.1-.11-.24-.165-.42-.165-.168 0-.354.032-.557.095-.203.064-.45.17-.737.324-.286.152-.858.465-1.713.94L2.25 5.263l7.3-3.796h1.726c-.237.897-.5 2.023-.787 3.377L8.24 15.04zm6.475 3.173l.66-3.098h2.057c.008.864.215 1.524.622 1.98.406.458.98.686 1.726.686.737 0 1.363-.21 1.88-.634.515-.423.91-1.013 1.18-1.77.27-.758.406-1.48.406-2.165 0-.837-.2-1.472-.597-1.903-.396-.432-.997-.648-1.8-.648-.416 0-.816.033-1.2.1-.386.068-.786.174-1.2.318l-1.067-.8 1.88-8.607h6.69c.304 0 .528-.022.672-.07.144-.045.267-.115.368-.208.102-.093.24-.28.42-.56h1.32l-1.118 4.05h-6.97L19.63 9.44c.872-.287 1.87-.43 2.996-.43.88 0 1.65.15 2.31.456.66.305 1.17.75 1.53 1.34.36.587.54 1.292.54 2.113 0 .498-.038.938-.114 1.32-.12.6-.292 1.138-.52 1.612-.263.55-.59 1.028-.985 1.434-.393.406-.852.745-1.377 1.016-.6.32-1.255.552-1.962.692-.706.14-1.462.21-2.266.21-.863 0-1.767-.092-2.71-.274-.944-.182-1.73-.42-2.355-.717z"/></g></svg>
