<svg xmlns="http://www.w3.org/2000/svg" width="30" height="20" viewBox="0 0 30 20"><path fill="#006AC6" fill-rule="evenodd" d="M3.825 18.213l.66-3.098h2.057c.008.864.216 1.524.622 1.98.406.458.982.686 1.727.686.737 0 1.363-.21 1.88-.634.516-.423.91-1.013 1.18-1.77.27-.758.406-1.48.406-2.165 0-.837-.198-1.472-.596-1.903-.398-.432-1-.648-1.803-.648-.415 0-.815.033-1.2.1-.385.068-.785.174-1.2.318l-1.066-.8L8.37 1.67h6.69c.305 0 .53-.022.673-.07.144-.045.267-.115.37-.208.1-.093.24-.28.418-.56h1.32l-1.116 4.05h-6.97L8.738 9.44c.872-.287 1.87-.43 2.996-.43.88 0 1.65.15 2.31.456.66.305 1.17.75 1.53 1.34.36.587.54 1.292.54 2.113 0 .498-.038.938-.114 1.32-.118.6-.292 1.138-.52 1.612-.263.55-.59 1.028-.984 1.434-.394.406-.853.745-1.378 1.016-.6.32-1.255.552-1.96.692-.708.14-1.463.21-2.267.21-.863 0-1.766-.092-2.71-.274-.944-.182-1.728-.42-2.355-.717z"/></svg>
