<svg xmlns="http://www.w3.org/2000/svg" width="30" height="20" viewBox="0 0 30 20"><path fill="#006AC6" fill-rule="evenodd" d="M6.2 5.695l.723-3.034c1.126-.405 2.164-.706 3.117-.9.952-.195 1.902-.292 2.85-.292.846 0 1.59.116 2.234.35.643.232 1.15.596 1.523 1.09.373.496.56 1.112.56 1.848 0 .66-.122 1.25-.363 1.77-.24.52-.573.99-.996 1.404-.424.414-.923.78-1.498 1.098-.576.317-1.198.594-1.867.83l-.025.166c.965.246 1.727.692 2.285 1.34.56.647.838 1.407.838 2.28 0 .777-.145 1.503-.437 2.176-.292.673-.75 1.282-1.37 1.828-.623.546-1.366.942-2.23 1.187-.862.245-1.92.368-3.173.368-.846 0-1.733-.095-2.66-.286-.926-.19-1.703-.425-2.33-.704l.674-3.085h2.03c.086 1.77.86 2.653 2.324 2.653.67 0 1.26-.196 1.77-.59.513-.393.907-.926 1.182-1.6.275-.672.412-1.36.412-2.062 0-.897-.25-1.557-.755-1.98-.503-.423-1.25-.635-2.24-.635h-1.13l.317-1.447c1.032-.026 1.972-.23 2.818-.61.847-.38 1.51-.926 1.993-1.637.483-.712.724-1.56.724-2.54 0-.584-.155-1.035-.464-1.352-.31-.318-.75-.476-1.327-.476-.272 0-.55.036-.84.107-.287.07-.57.213-.85.425-.28.21-.545.5-.8.87-.253.368-.49.848-.71 1.44H6.2z"/></svg>
