<svg xmlns="http://www.w3.org/2000/svg" width="30" height="20" viewBox="0 0 30 20"><g fill="none" fill-rule="evenodd"><path d="M0 0h30v20H0z"/><path fill="#006AC6" d="M8.242 15.04c-.16.727-.24 1.247-.24 1.56 0 .33.092.582.278.756.186.173.49.296.908.368.42.072 1.043.112 1.873.12L10.82 19H.383l.24-1.155c.915-.043 1.577-.102 1.988-.178.41-.076.723-.195.94-.355.215-.16.39-.38.526-.654.136-.275.28-.75.432-1.43l1.828-8.29c.093-.422.14-.764.14-1.027 0-.244-.05-.422-.153-.532-.1-.11-.24-.165-.42-.165-.168 0-.354.032-.557.095-.203.064-.45.17-.737.324-.286.152-.858.465-1.713.94L2.25 5.263l7.3-3.796h1.726c-.237.897-.5 2.023-.787 3.377L8.24 15.04zm8.85-9.345l.722-3.034c1.126-.405 2.165-.706 3.117-.9.953-.195 1.903-.292 2.85-.292.848 0 1.592.116 2.236.35.643.232 1.15.596 1.523 1.09.37.496.558 1.112.558 1.848 0 .66-.12 1.25-.362 1.77-.24.52-.574.99-.997 1.404-.424.414-.923.78-1.5 1.098-.574.317-1.196.594-1.865.83l-.025.166c.964.246 1.726.692 2.285 1.34.558.647.838 1.407.838 2.28 0 .777-.146 1.503-.438 2.176-.292.673-.75 1.282-1.37 1.828-.623.546-1.366.942-2.23 1.187-.863.245-1.92.368-3.173.368-.847 0-1.733-.095-2.66-.286-.927-.19-1.703-.425-2.33-.704l.673-3.085h2.032c.084 1.77.86 2.653 2.323 2.653.668 0 1.26-.196 1.77-.59.513-.393.906-.926 1.18-1.6.277-.672.414-1.36.414-2.062 0-.897-.252-1.557-.755-1.98-.505-.423-1.252-.635-2.242-.635h-1.13l.317-1.447c1.033-.026 1.972-.23 2.82-.61.845-.38 1.51-.926 1.992-1.637.482-.712.724-1.56.724-2.54 0-.584-.154-1.035-.463-1.352-.31-.318-.75-.476-1.326-.476-.27 0-.55.036-.837.107-.288.07-.572.213-.85.425-.28.21-.547.5-.8.87-.255.368-.492.848-.712 1.44h-2.31z"/></g></svg>
