<svg xmlns="http://www.w3.org/2000/svg" width="30" height="20" viewBox="0 0 30 20"><path fill="#006AC6" fill-rule="evenodd" d="M4.463 18.34l.165-.787c1.667-.246 3.123-.874 4.367-1.886 1.244-1.01 2.218-2.426 2.92-4.246l-.114-.05c-.685.322-1.277.538-1.777.648-.5.11-1.024.165-1.574.165-.847 0-1.58-.184-2.203-.553-.622-.368-1.094-.87-1.416-1.51-.32-.64-.48-1.365-.48-2.178 0-1.218.295-2.327.887-3.326.593-.998 1.407-1.77 2.444-2.317 1.038-.547 2.22-.82 3.55-.82 1.083 0 2.005.223 2.767.667.762.444 1.337 1.077 1.727 1.898.39.82.584 1.798.584 2.933 0 1.015-.144 2.1-.432 3.256-.288 1.155-.755 2.264-1.403 3.326-.647 1.062-1.458 1.995-2.43 2.8-.974.803-2.07 1.45-3.29 1.942-1.218.49-2.496.795-3.833.914l-.457-.876zm3.53-10.334c0 1.642.592 2.463 1.777 2.463.296 0 .577-.03.844-.09.266-.06.508-.146.723-.26.216-.115.398-.23.546-.343.148-.114.282-.26.4-.438.12-.18.216-.376.292-.59.076-.217.146-.503.21-.858.063-.356.114-.71.152-1.067.038-.355.057-.736.057-1.142 0-.957-.15-1.66-.45-2.108-.3-.448-.773-.673-1.416-.673-.6 0-1.136.216-1.606.648-.47.43-.842 1.047-1.117 1.847s-.413 1.67-.413 2.61z"/></svg>
