<svg xmlns="http://www.w3.org/2000/svg" width="30" height="20" viewBox="0 0 30 20"><g fill="none" fill-rule="evenodd"><path d="M0 0h30v20H0z"/><path fill="#006AC6" d="M8.242 15.04c-.16.727-.24 1.247-.24 1.56 0 .33.092.582.278.756.186.173.49.296.908.368.42.072 1.043.112 1.873.12L10.82 19H.383l.24-1.155c.915-.043 1.577-.102 1.988-.178.41-.076.723-.195.94-.355.215-.16.39-.38.526-.654.136-.275.28-.75.432-1.43l1.828-8.29c.093-.422.14-.764.14-1.027 0-.244-.05-.422-.153-.532-.1-.11-.24-.165-.42-.165-.168 0-.354.032-.557.095-.203.064-.45.17-.737.324-.286.152-.858.465-1.713.94L2.25 5.263l7.3-3.796h1.726c-.237.897-.5 2.023-.787 3.377L8.24 15.04zm8.112 3.3l.166-.787c1.667-.246 3.123-.874 4.367-1.886 1.244-1.01 2.217-2.426 2.92-4.246l-.115-.05c-.685.322-1.278.538-1.777.648-.5.11-1.024.165-1.574.165-.846 0-1.58-.184-2.202-.553-.622-.368-1.094-.87-1.415-1.51-.322-.64-.483-1.365-.483-2.178 0-1.218.296-2.327.89-3.326.59-.998 1.406-1.77 2.443-2.317 1.037-.547 2.22-.82 3.548-.82 1.084 0 2.007.223 2.77.667.76.444 1.336 1.077 1.725 1.898.39.82.584 1.798.584 2.933 0 1.015-.145 2.1-.432 3.256-.288 1.155-.756 2.264-1.403 3.326-.648 1.062-1.458 1.995-2.43 2.8-.975.803-2.07 1.45-3.29 1.942-1.218.49-2.496.795-3.833.914l-.458-.876zm3.53-10.334c0 1.642.592 2.463 1.777 2.463.297 0 .58-.03.845-.09.267-.06.508-.146.724-.26.215-.115.397-.23.545-.343.148-.114.28-.26.4-.438.118-.18.216-.376.292-.59.076-.217.146-.503.21-.858.063-.356.114-.71.152-1.067.037-.355.056-.736.056-1.142 0-.957-.15-1.66-.45-2.108-.3-.448-.773-.673-1.416-.673-.6 0-1.137.216-1.606.648-.47.43-.843 1.047-1.118 1.847-.275.8-.412 1.67-.412 2.61z"/></g></svg>
