<svg xmlns="http://www.w3.org/2000/svg" width="30" height="20" viewBox="0 0 30 20"><path fill="#006AC6" fill-rule="evenodd" d="M6.977 18.162c.406-.076.744-.29 1.015-.64.27-.352.487-.904.648-1.658l.42-1.89H2.494l.292-1.372 9.585-11.02h2.996l-2.36 10.79h.342c.397 0 .68-.026.85-.08.17-.056.328-.162.476-.32.148-.155.316-.424.502-.805h1.333l-.736 2.806H12.64l-.344 1.6c-.11.516-.165.968-.165 1.358 0 .424.077.722.23.896.152.173.427.285.825.336l-.178.838H6.8l.177-.838zm-1.714-5.79H9.4l1.042-4.62c.195-.83.373-1.54.534-2.133h-.14L5.3 12.156l-.037.216z"/></svg>
