<svg xmlns="http://www.w3.org/2000/svg" width="30" height="20" viewBox="0 0 30 20"><path fill="#006AC6" fill-rule="evenodd" d="M17.016 2.344l-.165.787c-1.26.102-2.378.41-3.35.928-.974.516-1.823 1.206-2.546 2.07-.724.862-1.344 1.907-1.86 3.135l.127.05c.686-.313 1.285-.526 1.797-.64.512-.115 1.064-.172 1.657-.172.846 0 1.572.183 2.177.547.606.364 1.06.867 1.366 1.51.305.644.457 1.372.457 2.184 0 1.135-.258 2.212-.775 3.232-.516 1.02-1.29 1.813-2.323 2.38-1.032.568-2.276.85-3.732.85-1.1 0-2.034-.215-2.8-.646-.765-.432-1.345-1.063-1.74-1.892-.392-.83-.59-1.824-.59-2.983 0-1.074.15-2.177.445-3.306.296-1.13.787-2.228 1.473-3.295.686-1.067 1.545-2.01 2.578-2.826 1.033-.816 2.18-1.464 3.44-1.942 1.262-.478 2.565-.76 3.91-.844l.458.876zm-4 10.372c0-1.668-.588-2.5-1.764-2.5-.364 0-.698.04-1.003.126-.306.084-.598.216-.877.393-.22.136-.406.305-.56.508-.15.203-.278.45-.38.736-.126.363-.232.827-.317 1.39-.084.562-.127 1.09-.127 1.58 0 .957.15 1.668.45 2.133.3.466.785.698 1.454.698.61 0 1.146-.206 1.612-.62.465-.416.834-1.03 1.104-1.842.27-.812.407-1.68.407-2.602z"/></svg>
