<svg xmlns="http://www.w3.org/2000/svg" width="30" height="20" viewBox="0 0 30 20"><g fill="none" fill-rule="evenodd"><path d="M0 0h30v20H0z"/><path fill="#006AC6" d="M8.242 15.04c-.16.727-.24 1.247-.24 1.56 0 .33.092.582.278.756.186.173.49.296.908.368.42.072 1.043.112 1.873.12L10.82 19H.383l.24-1.155c.915-.043 1.577-.102 1.988-.178.41-.076.723-.195.94-.355.215-.16.39-.38.526-.654.136-.275.28-.75.432-1.43l1.828-8.29c.093-.422.14-.764.14-1.027 0-.244-.05-.422-.153-.532-.1-.11-.24-.165-.42-.165-.168 0-.354.032-.557.095-.203.064-.45.17-.737.324-.286.152-.858.465-1.713.94L2.25 5.263l7.3-3.796h1.726c-.237.897-.5 2.023-.787 3.377L8.24 15.04zM27.907 2.343l-.165.787c-1.26.102-2.378.41-3.35.928-.975.516-1.823 1.206-2.547 2.07-.723.862-1.343 1.907-1.86 3.135l.127.05c.686-.313 1.285-.526 1.797-.64.51-.115 1.063-.172 1.655-.172.847 0 1.573.183 2.178.547.605.364 1.06.867 1.364 1.51.305.644.457 1.372.457 2.184 0 1.135-.258 2.212-.774 3.232s-1.29 1.813-2.323 2.38c-1.033.568-2.277.85-3.733.85-1.1 0-2.033-.215-2.8-.646-.765-.432-1.345-1.063-1.738-1.892-.394-.83-.59-1.824-.59-2.983 0-1.074.148-2.177.444-3.306.296-1.13.787-2.228 1.472-3.295.686-1.067 1.545-2.01 2.578-2.826 1.032-.816 2.18-1.464 3.44-1.942 1.26-.478 2.564-.76 3.91-.844l.457.876zm-4 10.372c0-1.668-.587-2.5-1.763-2.5-.364 0-.7.04-1.003.126-.304.084-.596.216-.875.393-.22.136-.407.305-.56.508-.15.203-.278.45-.38.736-.127.363-.233.827-.317 1.39-.085.562-.127 1.09-.127 1.58 0 .957.15 1.668.452 2.133.3.466.785.698 1.453.698.61 0 1.147-.206 1.612-.62.466-.416.834-1.03 1.105-1.842.27-.812.406-1.68.406-2.602z"/></g></svg>
