<svg xmlns="http://www.w3.org/2000/svg" width="30" height="20" viewBox="0 0 30 20"><path fill="#006AC6" fill-rule="evenodd" d="M11.57 15.89c.44 0 .78-.032 1.02-.096.243-.063.448-.182.617-.355.17-.175.355-.502.56-.985h1.547L14.184 19H3l.178-.838c.448-.77 1.062-1.616 1.84-2.54.78-.92 1.87-2.047 3.276-3.376 1.286-1.21 2.253-2.198 2.9-2.964.648-.766 1.14-1.505 1.473-2.216.335-.71.502-1.447.502-2.21 0-.616-.162-1.105-.483-1.465-.322-.36-.754-.538-1.295-.538-.686 0-1.278.232-1.778.698-.5.465-.93 1.18-1.295 2.145H6.01l.722-3.047c1.278-.44 2.355-.744 3.23-.914.877-.17 1.755-.254 2.636-.254 1.015 0 1.864.142 2.545.426.68.283 1.18.666 1.492 1.15.313.48.47 1.027.47 1.636 0 .567-.094 1.103-.28 1.606-.186.504-.493 1.03-.92 1.575-.428.545-1.007 1.155-1.74 1.828-.732.674-1.754 1.547-3.065 2.622-.618.508-1.285 1.092-2 1.752-.715.66-1.284 1.223-1.707 1.69l-.026.126h4.202z"/></svg>
