<svg xmlns="http://www.w3.org/2000/svg" width="30" height="20" viewBox="0 0 30 20"><g fill="none" fill-rule="evenodd"><path d="M0 0h30v20H0z"/><path fill="#006AC6" d="M8.242 15.04c-.16.727-.24 1.247-.24 1.56 0 .33.092.582.278.756.186.173.49.296.908.368.42.072 1.043.112 1.873.12L10.82 19H.383l.24-1.155c.915-.043 1.577-.102 1.988-.178.41-.076.723-.195.94-.355.215-.16.39-.38.526-.654.136-.275.28-.75.432-1.43l1.828-8.29c.093-.422.14-.764.14-1.027 0-.244-.05-.422-.153-.532-.1-.11-.24-.165-.42-.165-.168 0-.354.032-.557.095-.203.064-.45.17-.737.324-.286.152-.858.465-1.713.94L2.25 5.263l7.3-3.796h1.726c-.237.897-.5 2.023-.787 3.377L8.24 15.04zm17.05-4.75c.686.348 1.198.786 1.536 1.315.34.53.508 1.17.508 1.923 0 1.143-.286 2.146-.857 3.01-.572.862-1.385 1.523-2.438 1.98-1.054.457-2.284.685-3.688.685-1.16 0-2.16-.156-3.003-.47-.84-.313-1.486-.776-1.935-1.39-.45-.613-.673-1.352-.673-2.215 0-1.193.315-2.218.946-3.072.63-.855 1.59-1.562 2.875-2.12l.013-.165c-.558-.44-.986-.937-1.282-1.49-.296-.556-.444-1.154-.444-1.798 0-1.074.287-1.99.863-2.748.575-.758 1.37-1.325 2.38-1.7 1.012-.378 2.165-.566 3.46-.566 1.244 0 2.274.167 3.09.5.818.336 1.41.784 1.778 1.347.37.563.554 1.2.554 1.91 0 1.11-.3 2.06-.902 2.857-.6.796-1.527 1.477-2.78 2.044v.165zm-4.964-3.135c0 .415.053.78.16 1.098.105.318.295.576.57.775.275.2.65.298 1.124.298.626 0 1.185-.182 1.675-.546.49-.364.876-.88 1.156-1.55.28-.667.42-1.412.42-2.233 0-.72-.156-1.25-.465-1.593-.31-.343-.772-.514-1.39-.514-.584 0-1.09.133-1.517.4-.426.266-.77.624-1.027 1.072-.258.45-.44.933-.546 1.454-.106.52-.16.967-.16 1.34zm-1.98 8.468c0 .745.167 1.29.5 1.63.335.344.85.516 1.544.516.406 0 .76-.06 1.06-.173.3-.114.586-.298.857-.552.27-.254.513-.588.73-1.003.214-.415.384-.897.506-1.447.123-.55.184-1.134.184-1.752 0-.694-.162-1.223-.488-1.587-.326-.364-.798-.546-1.416-.546-.694 0-1.303.23-1.828.692-.525.46-.93 1.102-1.22 1.923-.286.82-.43 1.587-.43 2.298z"/></g></svg>
