<svg xmlns="http://www.w3.org/2000/svg" width="30" height="20" viewBox="0 0 30 20"><g fill="none" fill-rule="evenodd"><path d="M0 0h30v20H0z"/><path fill="#006AC6" d="M8.242 15.04c-.16.727-.24 1.247-.24 1.56 0 .33.092.582.278.756.186.173.49.296.908.368.42.072 1.043.112 1.873.12L10.82 19H.383l.24-1.155c.915-.043 1.577-.102 1.988-.178.41-.076.723-.195.94-.355.215-.16.39-.38.526-.654.136-.275.28-.75.432-1.43l1.828-8.29c.093-.422.14-.764.14-1.027 0-.244-.05-.422-.153-.532-.1-.11-.24-.165-.42-.165-.168 0-.354.032-.557.095-.203.064-.45.17-.737.324-.286.152-.858.465-1.713.94L2.25 5.263l7.3-3.796h1.726c-.237.897-.5 2.023-.787 3.377L8.24 15.04zm14.22.85c.44 0 .78-.032 1.02-.096.242-.063.447-.182.617-.355.168-.175.354-.502.557-.985h1.55L25.076 19H13.89l.177-.838c.448-.77 1.062-1.616 1.84-2.54.78-.92 1.87-2.047 3.276-3.376 1.286-1.21 2.253-2.198 2.9-2.964.648-.766 1.14-1.505 1.473-2.216.333-.71.5-1.447.5-2.21 0-.616-.16-1.105-.482-1.465-.32-.36-.753-.538-1.295-.538-.685 0-1.278.232-1.777.698-.5.465-.93 1.18-1.295 2.145H16.9l.724-3.047c1.278-.44 2.355-.744 3.23-.914.877-.17 1.755-.254 2.635-.254 1.015 0 1.863.142 2.545.426.68.283 1.178.666 1.49 1.15.315.48.47 1.027.47 1.636 0 .567-.092 1.103-.278 1.606-.186.504-.493 1.03-.92 1.575-.428.545-1.008 1.155-1.74 1.828-.732.674-1.754 1.547-3.066 2.622-.617.508-1.283 1.092-1.998 1.752-.715.66-1.285 1.223-1.708 1.69l-.025.126h4.2z"/></g></svg>
