<svg xmlns="http://www.w3.org/2000/svg" width="30" height="20" viewBox="0 0 30 20"><g fill="none" fill-rule="evenodd"><path d="M0 0h30v20H0z"/><path fill="#006AC6" d="M9.57 15.89c.44 0 .78-.032 1.02-.096.243-.063.448-.182.617-.355.17-.175.355-.502.56-.985h1.547L12.184 19H1l.178-.838c.448-.77 1.062-1.616 1.84-2.54.78-.92 1.87-2.047 3.276-3.376 1.286-1.21 2.253-2.198 2.9-2.964.648-.766 1.14-1.505 1.473-2.216.335-.71.502-1.447.502-2.21 0-.616-.162-1.105-.483-1.465-.322-.36-.754-.538-1.295-.538-.686 0-1.278.232-1.778.698-.5.465-.93 1.18-1.295 2.145H4.01l.722-3.047c1.278-.44 2.355-.744 3.23-.914.877-.17 1.755-.254 2.636-.254 1.015 0 1.864.142 2.545.426.68.283 1.18.666 1.492 1.15.313.48.47 1.027.47 1.636 0 .567-.094 1.103-.28 1.606-.186.504-.493 1.03-.92 1.575-.428.545-1.007 1.155-1.74 1.828-.732.674-1.754 1.547-3.065 2.622-.618.508-1.285 1.092-2 1.752-.715.66-1.284 1.223-1.707 1.69l-.026.126H9.57zm11.16 3.313c-1.437 0-2.535-.45-3.293-1.352-.757-.9-1.136-2.223-1.136-3.966 0-1.11.157-2.383.47-3.822.314-1.438.737-2.7 1.27-3.783.533-1.084 1.15-1.98 1.847-2.692.698-.71 1.462-1.242 2.292-1.593.828-.352 1.7-.527 2.614-.527 1.075 0 1.947.218 2.615.654.668.435 1.148 1.045 1.44 1.828.292.783.438 1.737.438 2.862 0 .88-.106 1.905-.317 3.073-.21 1.168-.473 2.2-.786 3.097-.314.898-.705 1.73-1.175 2.5-.47.772-1.023 1.436-1.657 1.995-.635.558-1.34.986-2.114 1.282-.776.295-1.61.443-2.51.443zm-1.078-3.313c0 .668.106 1.15.318 1.447.21.296.558.444 1.04.444.322 0 .64-.117.953-.354.516-.39 1.007-1.075 1.473-2.057.592-1.27 1.146-2.984 1.663-5.142.515-2.16.773-3.864.773-5.117 0-.498-.038-.904-.114-1.217-.077-.314-.213-.56-.407-.737-.195-.177-.466-.266-.813-.266-.398 0-.787.177-1.168.533-.652.6-1.265 1.684-1.84 3.25-.542 1.473-1.016 3.263-1.423 5.37-.305 1.608-.458 2.89-.458 3.847z"/></g></svg>
