<svg xmlns="http://www.w3.org/2000/svg" width="30" height="20" viewBox="0 0 30 20"><g fill="none" fill-rule="evenodd"><path d="M0 0h30v20H0z"/><path fill="#006AC6" d="M8.242 15.04c-.16.727-.24 1.247-.24 1.56 0 .33.092.582.278.756.186.173.49.296.908.368.42.072 1.043.112 1.873.12L10.82 19H.383l.24-1.155c.915-.043 1.577-.102 1.988-.178.41-.076.723-.195.94-.355.215-.16.39-.38.526-.654.136-.275.28-.75.432-1.43l1.828-8.29c.093-.422.14-.764.14-1.027 0-.244-.05-.422-.153-.532-.1-.11-.24-.165-.42-.165-.168 0-.354.032-.557.095-.203.064-.45.17-.737.324-.286.152-.858.465-1.713.94L2.25 5.263l7.3-3.796h1.726c-.237.897-.5 2.023-.787 3.377L8.24 15.04zm11.49 4.163c-1.44 0-2.537-.45-3.295-1.352-.757-.9-1.136-2.223-1.136-3.966 0-1.11.157-2.383.47-3.822.314-1.438.737-2.7 1.27-3.783.533-1.084 1.15-1.98 1.847-2.692.698-.71 1.462-1.242 2.292-1.593.828-.352 1.7-.527 2.614-.527 1.075 0 1.947.218 2.615.654.668.435 1.148 1.045 1.44 1.828.292.783.438 1.737.438 2.862 0 .88-.106 1.905-.317 3.073-.21 1.168-.473 2.2-.786 3.097-.314.898-.705 1.73-1.175 2.5-.47.772-1.023 1.436-1.657 1.995-.635.558-1.34.986-2.114 1.282-.776.295-1.61.443-2.51.443zm-1.08-3.313c0 .668.106 1.15.318 1.447.21.296.558.444 1.04.444.322 0 .64-.117.953-.354.516-.39 1.007-1.075 1.473-2.057.592-1.27 1.146-2.984 1.663-5.142.515-2.16.773-3.864.773-5.117 0-.498-.038-.904-.114-1.217-.077-.314-.213-.56-.407-.737-.195-.177-.466-.266-.813-.266-.398 0-.787.177-1.168.533-.652.6-1.265 1.684-1.84 3.25-.542 1.473-1.016 3.263-1.423 5.37-.305 1.608-.458 2.89-.458 3.847z"/></g></svg>
