<svg xmlns="http://www.w3.org/2000/svg" width="30" height="20" viewBox="0 0 30 20"><g fill="none" fill-rule="evenodd"><path d="M0 0h30v20H0z"/><path fill="#006AC6" d="M8.242 15.04c-.16.727-.24 1.247-.24 1.56 0 .33.092.582.278.756.186.173.49.296.908.368.42.072 1.043.112 1.873.12L10.82 19H.383l.24-1.155c.915-.043 1.577-.102 1.988-.178.41-.076.723-.195.94-.355.215-.16.39-.38.526-.654.136-.275.28-.75.432-1.43l1.828-8.29c.093-.422.14-.764.14-1.027 0-.244-.05-.422-.153-.532-.1-.11-.24-.165-.42-.165-.168 0-.354.032-.557.095-.203.064-.45.17-.737.324-.286.152-.858.465-1.713.94L2.25 5.263l7.3-3.796h1.726c-.237.897-.5 2.023-.787 3.377L8.24 15.04zm10.626 3.122c.406-.076.745-.29 1.016-.64.27-.352.486-.904.647-1.658l.42-1.89h-6.563l.292-1.372 9.584-11.02h2.996l-2.362 10.79h.343c.4 0 .683-.026.852-.08.17-.056.328-.162.476-.32.148-.155.315-.424.5-.805h1.334l-.736 2.806H24.53l-.343 1.6c-.11.516-.165.968-.165 1.358 0 .424.077.722.23.896.15.173.426.285.824.336l-.178.838H18.69l.178-.838zm-1.714-5.79h4.14l1.04-4.62c.195-.83.372-1.54.533-2.133h-.14l-5.535 6.537-.038.216z"/></g></svg>
