<?xml version="1.0" encoding="UTF-8" standalone="no"?>
<svg width="20px" height="20px" viewBox="0 0 20 20" version="1.1" xmlns="http://www.w3.org/2000/svg" xmlns:xlink="http://www.w3.org/1999/xlink">
    <!-- Generator: Sketch 40.3 (33839) - http://www.bohemiancoding.com/sketch -->
    <title>little_right</title>
    <desc>Created with Sketch.</desc>
    <defs></defs>
    <g id="Symbols" stroke="none" stroke-width="1" fill="none" fill-rule="evenodd">
        <g id="little_right" fill="#6E7071">
            <g transform="translate(10.000000, 10.000000) scale(-1, 1) translate(-10.000000, -10.000000) " id="Imported-Layers">
                <path d="M5.60831888,9.99952495 L14.5545526,1.05329121 C14.8379849,0.769858967 14.8881303,0.359940489 14.6664844,0.13829461 C14.4448386,-0.0833512693 14.0349201,-0.0332058127 13.7514878,0.250226433 L4.50913202,9.49258226 C4.49565311,9.50606116 4.48270181,9.51982612 4.47028223,9.53384329 C4.44455291,9.55065571 4.42040276,9.57016867 4.39815029,9.59242114 C4.29461825,9.69595318 4.25038773,9.84056398 4.26153447,9.99417436 C4.24724206,10.1521079 4.29105428,10.301433 4.39720019,10.4075789 C4.42073402,10.4311127 4.44639036,10.4515824 4.47379247,10.4690342 C4.485429,10.4820586 4.49752667,10.4948623 4.51008211,10.5074177 L13.7524379,19.7497736 C14.0358702,20.0332058 14.4457887,20.0833513 14.6674345,19.8617054 C14.8890804,19.6400595 14.838935,19.230141 14.5555027,18.9467088 L5.60831888,9.99952495 Z"></path>
            </g>
        </g>
    </g>
</svg>