<svg width="26" height="26" xmlns="http://www.w3.org/2000/svg"><title>邦邦</title><g fill="none" fill-rule="evenodd"><path opacity=".4" d="M0 0h26v26H0z"/><g stroke-linecap="round" stroke="#006AC6"><g stroke-width="1.2"><path d="M4.353 14.7c-.896-.288-1.334-1.121-1.334-2.102 0-1.221 1.004-2.212 2.238-2.212 1.233 0 2.238.99 2.238 2.212 0 1.004-.505 1.852-1.433 2.122M2.026 17.21c.276-1.241 1.206-2.482 2.318-2.482m1.712 0c1.128 0 1.986 1.32 2.146 2.482"/></g><g stroke-width="1.2"><path d="M21.647 14.7c.896-.288 1.334-1.121 1.334-2.102 0-1.221-1.004-2.212-2.238-2.212-1.233 0-2.238.99-2.238 2.212 0 1.004.505 1.852 1.433 2.122M23.974 17.21c-.276-1.241-1.206-2.482-2.318-2.482m-1.712 0c-1.128 0-1.986 1.32-2.146 2.482"/></g><g stroke-width="1.6"><path d="M11.364 15.915c-1.732-.559-2.58-2.17-2.58-4.069 0-2.36 1.943-4.278 4.329-4.278 2.386 0 4.33 1.917 4.33 4.278 0 1.943-.977 3.585-2.772 4.106M6.893 22.604c-.122-2.38 2.303-6.636 4.454-6.636m3.312 0c2.182 0 4.893 4.174 4.908 6.636"/></g></g><circle stroke="#ABD2F3" stroke-width="1.8" cx="13" cy="13" r="12"/><circle stroke="#006AC6" stroke-width="1.8" cx="13" cy="13" r="12"/></g></svg>