<svg xmlns="http://www.w3.org/2000/svg" xmlns:xlink="http://www.w3.org/1999/xlink" width="12" height="12" viewBox="0 0 12 12"><defs><path id="a" d="M0 0h12v12H0z"/></defs><clipPath id="b"><use xlink:href="#a" overflow="visible"/></clipPath><g clip-path="url(#b)"><path fill="#FFF" d="M1.911 1.53C1.186-4.404-3.87-9-10-9h-114c-8.284 0-15 6.716-15 15s6.716 15 15 15h114c6.13 0 11.186-4.596 11.911-10.529C7.305 8.9 10.001 7.41 10 6S7.303 3.101 1.911 1.53z"/><path fill="#E9E9E9" d="M-10 21h-114c-8.271 0-15-6.729-15-15s6.729-15 15-15h114C-4.469-9 .281-5.226 1.623 0c.128.498.225 1.008.288 1.53C10 3.887 10 5.478 10 6c0 .521 0 2.114-8.089 4.47C1.178 16.475-3.943 21-10 21zM-124-8c-7.72 0-14 6.28-14 14s6.28 14 14 14h114C-4.448 20 .246 15.852.918 10.35l.08-.656.634-.184C7.46 7.812 9 6.472 9 6S7.46 4.188 1.631 2.49l-.633-.184-.08-.654C.246-3.851-4.448-8-10-8h-114z"/><defs><filter id="c" filterUnits="userSpaceOnUse"><feColorMatrix values="1 0 0 0 0 0 1 0 0 0 0 0 1 0 0 0 0 0 1 0"/></filter></defs><mask maskUnits="userSpaceOnUse" id="d"><path fill="#FFF" d="M0 0h12v12H0z" filter="url(#c)"/></mask></g></svg>