<svg width="28" height="28" viewBox="0 0 28 28" xmlns="http://www.w3.org/2000/svg" xmlns:xlink="http://www.w3.org/1999/xlink"><title>邦邦會員</title><defs><circle id="a" cx="14" cy="14" r="14"/></defs><g fill="none" fill-rule="evenodd"><path opacity=".4" d="M0 0h28v28H0z"/><mask id="b" fill="#fff"><use xlink:href="#a"/></mask><use fill="#F2F4F5" xlink:href="#a"/><circle stroke="#E9E9E9" cx="14" cy="14" r="13.5"/><g mask="url(#b)" fill-rule="nonzero"><path d="M13.94 13.73c-1.9 0-3.44-1.54-3.44-3.44 0-1.898 1.54-3.44 3.44-3.44s3.44 1.542 3.44 3.44c0 1.9-1.54 3.44-3.44 3.44zm0-1.07c1.308 0 2.368-1.06 2.368-2.37 0-1.307-1.06-2.367-2.37-2.367-1.307 0-2.367 1.06-2.367 2.368 0 1.31 1.06 2.37 2.37 2.37zM14.52 14.95c.187-.138.37-.264.546-.373.624-.385 1.124-.562 1.572-.418 1.834.587 2.68 1.783 2.872 3.5.05.457.055.83.04 1.562-.007.28-.008.377-.008.508v.536H8.34v-.536c0-.133-.003-.233-.01-.52-.017-.725-.012-1.096.037-1.55.186-1.7 1.017-2.89 2.825-3.484.45-.15.958.024 1.592.406.18.11.367.233.56.37.202.147.402.302.592.457.187-.157.383-.313.583-.46zm3.925 2.828c-.148-1.322-.733-2.15-2.134-2.6-.04-.012-.317.086-.68.31-.15.093-.31.202-.475.325-.207.152-.413.317-.606.48-.117.1-.202.175-.247.216l-.36.33-.36-.326c-.046-.04-.133-.116-.25-.214-.197-.163-.406-.326-.616-.477-.17-.122-.332-.23-.485-.323-.374-.225-.66-.322-.705-.307-1.377.454-1.95 1.275-2.095 2.584-.042.392-.046.73-.03 1.408 0 .002 3.025.005 9.076.01.015-.683.01-1.022-.033-1.417z" fill="#FFF"/><path d="M18.445 17.778c-.148-1.322-.733-2.15-2.134-2.6-.04-.012-.317.086-.68.31-.15.093-.31.202-.475.325-.207.152-.413.317-.606.48-.117.1-.202.175-.247.216l-.36.33-.36-.326c-.046-.04-.133-.116-.25-.214-.197-.163-.406-.326-.616-.477-.17-.122-.332-.23-.485-.323-.374-.225-.66-.322-.705-.307-1.377.454-1.95 1.275-2.095 2.584-.042.392-.046.73-.03 1.408 0 .002 3.025.005 9.076.01.015-.683.01-1.022-.033-1.417zM13.94 12.66c1.308 0 2.368-1.06 2.368-2.37 0-1.307-1.06-2.367-2.37-2.367-1.307 0-2.367 1.06-2.367 2.368 0 1.31 1.06 2.37 2.37 2.37z" fill="#7EDAF3"/></g></g></svg>