<svg width="20" height="20" viewBox="0 0 20 20" xmlns="http://www.w3.org/2000/svg">
    <path d="M10.108 4.503c-1.824.073-3.834.97-6.503 3.322-.324.285-.77 1.142-.135 1.45.407-.33.796-.688 1.225-.99.977-.697 3.86-2.652 5.335-2.676 2.285-.036 4.02 1.647 5.625 4.35-1.604 2.698-3.31 4.317-5.65 4.255-.653-.017-1.266-.246-1.917-.544-1.05-.47-2.97-2.538-4.034-2.953-.484-.186-.834.016-1.054.592 1.932.86 4.086 3.99 6.887 3.986 2.643-.005 5.143-1.738 7.08-5.337-1.937-3.602-4.693-5.544-6.86-5.457zm2.3 5.453c0 1.104-.895 2-2 2-1.104 0-2-.896-2-2s.896-2 2-2c1.105 0 2 .896 2 2z" fill="#ADB1B3" fill-rule="evenodd"/>
</svg>
